<?xml version="1.0" encoding="UTF-8"?>
<!DOCTYPE svg PUBLIC "-//W3C//DTD SVG 1.1//EN" "http://www.w3.org/Graphics/SVG/1.1/DTD/svg11.dtd">
<svg xmlns="http://www.w3.org/2000/svg" version="1.1" width="512px" height="512px" style="shape-rendering:geometricPrecision; text-rendering:geometricPrecision; image-rendering:optimizeQuality; fill-rule:evenodd; clip-rule:evenodd" xmlns:xlink="http://www.w3.org/1999/xlink">
<g><path style="opacity:0.983" fill="#dad8db" d="M 84.5,-0.5 C 86.5,-0.5 88.5,-0.5 90.5,-0.5C 90.5,103.833 90.5,208.167 90.5,312.5C 85.1667,312.5 79.8333,312.5 74.5,312.5C 74.8298,295.991 74.4964,279.658 73.5,263.5C 73.3333,179.166 73.5,94.8327 74,10.5C 76.3566,5.64549 79.8566,1.97883 84.5,-0.5 Z"/></g>
<g><path style="opacity:0.998" fill="#ebe9eb" d="M 90.5,-0.5 C 192.167,-0.5 293.833,-0.5 395.5,-0.5C 395.333,27.8353 395.5,56.1686 396,84.5C 396.785,86.286 397.951,87.786 399.5,89C 428.745,90.4839 458.079,90.9839 487.5,90.5C 487.5,225.167 487.5,359.833 487.5,494.5C 360.833,494.667 234.166,494.5 107.5,494C 93.9001,487.977 88.2334,477.477 90.5,462.5C 162.669,462.833 234.669,462.499 306.5,461.5C 315.609,460.057 320.609,454.724 321.5,445.5C 321.667,405.165 321.5,364.832 321,324.5C 318.289,317.947 313.455,314.28 306.5,313.5C 234.669,312.501 162.669,312.167 90.5,312.5C 90.5,208.167 90.5,103.833 90.5,-0.5 Z"/></g>
<g><path style="opacity:0.998" fill="#dad8db" d="M 395.5,-0.5 C 398.167,-0.5 400.833,-0.5 403.5,-0.5C 430.743,25.2415 457.577,51.5749 484,78.5C 486.285,82.1869 487.452,86.1869 487.5,90.5C 458.079,90.9839 428.745,90.4839 399.5,89C 397.951,87.786 396.785,86.286 396,84.5C 395.5,56.1686 395.333,27.8353 395.5,-0.5 Z"/></g>
<g><path style="opacity:1" fill="#e16179" d="M 265.5,75.5 C 278.999,74.1707 286.832,80.1707 289,93.5C 288.943,110.183 286.443,126.516 281.5,142.5C 292.626,162.804 306.292,181.304 322.5,198C 335.536,198.147 348.536,198.813 361.5,200C 367.132,201.211 372.466,203.211 377.5,206C 385.466,213.457 386.632,221.957 381,231.5C 374.563,240.954 365.73,244.121 354.5,241C 340.548,235.046 328.215,226.712 317.5,216C 292.899,217.22 268.899,221.72 245.5,229.5C 237.673,244.322 228.006,257.822 216.5,270C 209.519,276.883 201.185,279.549 191.5,278C 177.361,269.901 174.195,258.735 182,244.5C 186.959,238.535 192.792,233.702 199.5,230C 211.137,224.238 222.97,219.071 235,214.5C 246.454,192.139 255.954,168.972 263.5,145C 256.883,132.811 252.049,119.978 249,106.5C 245.153,90.8473 250.653,80.5139 265.5,75.5 Z"/></g>
<g><path style="opacity:1" fill="#ebe6e8" d="M 266.5,92.5 C 268.467,92.2606 270.301,92.5939 272,93.5C 272.707,102.599 272.041,111.599 270,120.5C 265.781,112.297 264.114,103.63 265,94.5C 265.717,93.9558 266.217,93.2891 266.5,92.5 Z"/></g>
<g><path style="opacity:1" fill="#ebe7e9" d="M 274.5,164.5 C 283.674,176.286 293.007,188.119 302.5,200C 287.163,202.401 271.997,205.567 257,209.5C 262.905,194.634 268.738,179.634 274.5,164.5 Z"/></g>
<g><path style="opacity:1" fill="#ebe3e6" d="M 341.5,215.5 C 349.6,213.821 357.6,214.655 365.5,218C 368.123,220.559 367.79,222.892 364.5,225C 362.5,225.667 360.5,225.667 358.5,225C 352.515,222.342 346.848,219.176 341.5,215.5 Z"/></g>
<g><path style="opacity:1" fill="#ebe3e6" d="M 219.5,237.5 C 220.239,237.369 220.906,237.536 221.5,238C 215.895,246.604 209.228,254.271 201.5,261C 194.659,262.798 192.826,260.298 196,253.5C 203.12,247.031 210.953,241.697 219.5,237.5 Z"/></g>
<g><path style="opacity:0.99" fill="#bd4150" d="M 73.5,263.5 C 73.5,280.167 73.5,296.833 73.5,313.5C 62.4617,313.765 51.4617,313.432 40.5,312.5C 31.7479,307.995 26.0812,300.995 23.5,291.5C 23.2914,277.734 29.6248,268.567 42.5,264C 52.828,263.5 63.1613,263.334 73.5,263.5 Z"/></g>
<g><path style="opacity:0.981" fill="#db4655" d="M 23.5,291.5 C 26.0812,300.995 31.7479,307.995 40.5,312.5C 40.3333,349.835 40.5,387.168 41,424.5C 42.9663,433.626 48.133,440.126 56.5,444C 144.776,445.492 233.109,445.992 321.5,445.5C 320.609,454.724 315.609,460.057 306.5,461.5C 228.665,461.167 150.998,461.501 73.5,462.5C 63.8276,462.666 54.1609,462.5 44.5,462C 34.9246,460.13 28.4246,454.63 25,445.5C 23.5225,394.205 23.0225,342.872 23.5,291.5 Z"/></g>
<g><path style="opacity:1" fill="#e15f78" d="M 40.5,312.5 C 51.4617,313.432 62.4617,313.765 73.5,313.5C 151.167,313.5 228.833,313.5 306.5,313.5C 313.455,314.28 318.289,317.947 321,324.5C 321.5,364.832 321.667,405.165 321.5,445.5C 233.109,445.992 144.776,445.492 56.5,444C 48.133,440.126 42.9663,433.626 41,424.5C 40.5,387.168 40.3333,349.835 40.5,312.5 Z"/></g>
<g><path style="opacity:1" fill="#e5c7ce" d="M 73.5,263.5 C 74.4964,279.658 74.8298,295.991 74.5,312.5C 79.8333,312.5 85.1667,312.5 90.5,312.5C 162.669,312.167 234.669,312.501 306.5,313.5C 228.833,313.5 151.167,313.5 73.5,313.5C 73.5,296.833 73.5,280.167 73.5,263.5 Z"/></g>
<g><path style="opacity:1" fill="#fefcfc" d="M 86.5,346.5 C 95.8393,346.334 105.173,346.5 114.5,347C 131.831,352.825 138.331,364.658 134,382.5C 129.696,392.473 122.196,398.307 111.5,400C 107.179,400.499 102.846,400.666 98.5,400.5C 98.9057,408.917 98.4057,417.251 97,425.5C 94.0052,428.265 90.5052,429.098 86.5,428C 84.1853,426.891 82.6853,425.057 82,422.5C 81.3333,399.167 81.3333,375.833 82,352.5C 83.332,350.34 84.832,348.34 86.5,346.5 Z"/></g>
<g><path style="opacity:1" fill="#fefdfe" d="M 156.5,347.5 C 200.012,342.518 217.512,361.518 209,404.5C 205.255,414.579 198.422,421.746 188.5,426C 177.573,427.597 166.573,427.931 155.5,427C 153.951,425.786 152.785,424.286 152,422.5C 151.333,399.167 151.333,375.833 152,352.5C 153.025,350.313 154.525,348.646 156.5,347.5 Z"/></g>
<g><path style="opacity:1" fill="#fefcfc" d="M 232.5,346.5 C 243.172,346.333 253.839,346.5 264.5,347C 271.538,351.186 272.205,356.186 266.5,362C 258.946,363.432 251.279,363.932 243.5,363.5C 243.5,368.5 243.5,373.5 243.5,378.5C 249.842,378.334 256.175,378.5 262.5,379C 270.5,384.333 270.5,389.667 262.5,395C 256.175,395.5 249.842,395.666 243.5,395.5C 243.949,405.605 243.449,415.605 242,425.5C 236.471,430.044 231.804,429.377 228,423.5C 227.333,399.5 227.333,375.5 228,351.5C 229.025,349.313 230.525,347.646 232.5,346.5 Z"/></g>
<g><path style="opacity:1" fill="#e1627a" d="M 98.5,362.5 C 103.599,362.175 108.599,362.675 113.5,364C 121.075,369.56 121.409,375.56 114.5,382C 109.264,383.339 103.93,383.839 98.5,383.5C 98.5,376.5 98.5,369.5 98.5,362.5 Z"/></g>
<g><path style="opacity:1" fill="#ec9aa9" d="M 181.5,364.5 C 177.167,364.5 172.833,364.5 168.5,364.5C 168.5,379.833 168.5,395.167 168.5,410.5C 172.833,410.5 177.167,410.5 181.5,410.5C 177.03,411.486 172.363,411.819 167.5,411.5C 167.5,395.5 167.5,379.5 167.5,363.5C 172.363,363.181 177.03,363.514 181.5,364.5 Z"/></g>
<g><path style="opacity:1" fill="#e16079" d="M 181.5,364.5 C 187.728,366.226 191.895,370.226 194,376.5C 196.524,386.211 195.524,395.544 191,404.5C 188.71,407.969 185.544,409.969 181.5,410.5C 177.167,410.5 172.833,410.5 168.5,410.5C 168.5,395.167 168.5,379.833 168.5,364.5C 172.833,364.5 177.167,364.5 181.5,364.5 Z"/></g>
<g><path style="opacity:0.997" fill="#dad6d9" d="M 306.5,461.5 C 234.669,462.499 162.669,462.833 90.5,462.5C 88.2334,477.477 93.9001,487.977 107.5,494C 234.166,494.5 360.833,494.667 487.5,494.5C 487.07,502.381 483.403,508.048 476.5,511.5C 345.833,511.5 215.167,511.5 84.5,511.5C 79.8566,509.021 76.3566,505.355 74,500.5C 73.5001,487.838 73.3334,475.171 73.5,462.5C 150.998,461.501 228.665,461.167 306.5,461.5 Z"/></g>
</svg>
