<?xml version="1.0" encoding="utf-8"?>
<!-- Generator: Adobe Illustrator 26.0.0, SVG Export Plug-In . SVG Version: 6.00 Build 0)  -->
<svg version="1.1" xmlns="http://www.w3.org/2000/svg" xmlns:xlink="http://www.w3.org/1999/xlink" x="0px" y="0px"
	 viewBox="0 0 553 553" style="enable-background:new 0 0 553 553;" xml:space="preserve">
<style type="text/css">
	.st0{opacity:0.989;fill-rule:evenodd;clip-rule:evenodd;fill:#211402;enable-background:new    ;}
	.st1{opacity:0.997;fill-rule:evenodd;clip-rule:evenodd;fill:#2C1B00;enable-background:new    ;}
	.st2{opacity:0.947;fill-rule:evenodd;clip-rule:evenodd;fill:#3D3D3D;enable-background:new    ;}
	.st3{fill-rule:evenodd;clip-rule:evenodd;fill:#503740;}
	.st4{fill-rule:evenodd;clip-rule:evenodd;fill:#48310F;}
	.st5{fill-rule:evenodd;clip-rule:evenodd;fill:#624E39;}
	.st6{fill-rule:evenodd;clip-rule:evenodd;fill:#5A3E14;}
	.st7{fill-rule:evenodd;clip-rule:evenodd;fill:#C6C842;}
	.st8{fill-rule:evenodd;clip-rule:evenodd;fill:#57374B;}
	.st9{fill-rule:evenodd;clip-rule:evenodd;fill:#603759;}
	.st10{fill-rule:evenodd;clip-rule:evenodd;fill:#B6B71D;}
	.st11{fill-rule:evenodd;clip-rule:evenodd;fill:#613759;}
	.st12{opacity:0.995;fill-rule:evenodd;clip-rule:evenodd;fill:#9291B6;enable-background:new    ;}
	.st13{fill-rule:evenodd;clip-rule:evenodd;fill:#3B2606;}
	.st14{fill-rule:evenodd;clip-rule:evenodd;fill:#5E3756;}
	.st15{fill-rule:evenodd;clip-rule:evenodd;fill:#E4E564;}
	.st16{fill-rule:evenodd;clip-rule:evenodd;fill:#C0C314;}
	.st17{fill-rule:evenodd;clip-rule:evenodd;fill:#6C376A;}
	.st18{fill-rule:evenodd;clip-rule:evenodd;fill:#713673;}
	.st19{fill-rule:evenodd;clip-rule:evenodd;fill:#683764;}
	.st20{fill-rule:evenodd;clip-rule:evenodd;fill:#753679;}
	.st21{fill-rule:evenodd;clip-rule:evenodd;fill:#713773;}
	.st22{fill-rule:evenodd;clip-rule:evenodd;fill:#82378B;}
	.st23{fill-rule:evenodd;clip-rule:evenodd;fill:#7C3784;}
	.st24{fill-rule:evenodd;clip-rule:evenodd;fill:#863692;}
	.st25{fill-rule:evenodd;clip-rule:evenodd;fill:#9337A4;}
	.st26{fill-rule:evenodd;clip-rule:evenodd;fill:#853790;}
	.st27{fill-rule:evenodd;clip-rule:evenodd;fill:#8D379D;}
	.st28{fill-rule:evenodd;clip-rule:evenodd;fill:#9937AC;}
	.st29{fill-rule:evenodd;clip-rule:evenodd;fill:#9A37AE;}
	.st30{fill-rule:evenodd;clip-rule:evenodd;fill:#A8A7C0;}
	.st31{fill-rule:evenodd;clip-rule:evenodd;fill:#A739BE;}
	.st32{fill-rule:evenodd;clip-rule:evenodd;fill:#D4D525;}
	.st33{fill-rule:evenodd;clip-rule:evenodd;fill:#A839C0;}
	.st34{fill-rule:evenodd;clip-rule:evenodd;fill:#B4B3C5;}
	.st35{fill-rule:evenodd;clip-rule:evenodd;fill:#BB49D0;}
	.st36{fill-rule:evenodd;clip-rule:evenodd;fill:#BE49D4;}
	.st37{fill-rule:evenodd;clip-rule:evenodd;fill:#C0C0CB;}
	.st38{fill-rule:evenodd;clip-rule:evenodd;fill:#CC58DE;}
	.st39{fill-rule:evenodd;clip-rule:evenodd;fill:#CD59DE;}
	.st40{fill-rule:evenodd;clip-rule:evenodd;fill:#DC69E8;}
	.st41{fill-rule:evenodd;clip-rule:evenodd;fill:#D865E5;}
	.st42{fill-rule:evenodd;clip-rule:evenodd;fill:#7C6543;}
	.st43{fill-rule:evenodd;clip-rule:evenodd;fill:#F281F6;}
	.st44{opacity:0.989;fill-rule:evenodd;clip-rule:evenodd;fill:#D2D2D3;enable-background:new    ;}
	.st45{fill-rule:evenodd;clip-rule:evenodd;fill:#F282F6;}
	.st46{fill-rule:evenodd;clip-rule:evenodd;fill:#E06DEB;}
	.st47{fill-rule:evenodd;clip-rule:evenodd;fill:#D966E6;}
	.st48{fill-rule:evenodd;clip-rule:evenodd;fill:#6A5029;}
	.st49{fill-rule:evenodd;clip-rule:evenodd;fill:#593D11;}
	.st50{fill-rule:evenodd;clip-rule:evenodd;fill:#CE5ADF;}
	.st51{fill-rule:evenodd;clip-rule:evenodd;fill:#C34FD7;}
	.st52{fill-rule:evenodd;clip-rule:evenodd;fill:#2E1C03;}
	.st53{fill-rule:evenodd;clip-rule:evenodd;fill:#39393A;}
	.st54{fill-rule:evenodd;clip-rule:evenodd;fill:#B544CB;}
	.st55{fill-rule:evenodd;clip-rule:evenodd;fill:#4B2E03;}
	.st56{fill-rule:evenodd;clip-rule:evenodd;fill:#3B2402;}
	.st57{fill-rule:evenodd;clip-rule:evenodd;fill:#AB3CC3;}
	.st58{fill-rule:evenodd;clip-rule:evenodd;fill:#A137B8;}
	.st59{fill-rule:evenodd;clip-rule:evenodd;fill:#9737AB;}
	.st60{opacity:0.998;fill-rule:evenodd;clip-rule:evenodd;fill:#9392B6;enable-background:new    ;}
	.st61{fill-rule:evenodd;clip-rule:evenodd;fill:#E3E505;}
	.st62{fill-rule:evenodd;clip-rule:evenodd;fill:#69687D;}
	.st63{fill-rule:evenodd;clip-rule:evenodd;fill:#DDDC0B;}
	.st64{fill-rule:evenodd;clip-rule:evenodd;fill:#9237A5;}
	.st65{fill-rule:evenodd;clip-rule:evenodd;fill:#9236A5;}
	.st66{fill-rule:evenodd;clip-rule:evenodd;fill:#8A379B;}
	.st67{fill-rule:evenodd;clip-rule:evenodd;fill:#8B369C;}
	.st68{fill-rule:evenodd;clip-rule:evenodd;fill:#82378E;}
	.st69{fill-rule:evenodd;clip-rule:evenodd;fill:#83378F;}
	.st70{fill-rule:evenodd;clip-rule:evenodd;fill:#7A3782;}
	.st71{fill-rule:evenodd;clip-rule:evenodd;fill:#3B3B3C;}
	.st72{fill-rule:evenodd;clip-rule:evenodd;fill:#80368C;}
	.st73{fill-rule:evenodd;clip-rule:evenodd;fill:#C8CB10;}
	.st74{fill-rule:evenodd;clip-rule:evenodd;fill:#713775;}
	.st75{fill-rule:evenodd;clip-rule:evenodd;fill:#B9BC17;}
	.st76{fill-rule:evenodd;clip-rule:evenodd;fill:#6F3671;}
	.st77{fill-rule:evenodd;clip-rule:evenodd;fill:#693668;}
	.st78{fill-rule:evenodd;clip-rule:evenodd;fill:#713876;}
	.st79{fill-rule:evenodd;clip-rule:evenodd;fill:#703673;}
	.st80{fill-rule:evenodd;clip-rule:evenodd;fill:#61365C;}
	.st81{fill-rule:evenodd;clip-rule:evenodd;fill:#62365D;}
	.st82{fill-rule:evenodd;clip-rule:evenodd;fill:#5A374F;}
	.st83{fill-rule:evenodd;clip-rule:evenodd;fill:#603659;}
	.st84{fill-rule:evenodd;clip-rule:evenodd;fill:#5A364F;}
	.st85{fill-rule:evenodd;clip-rule:evenodd;fill:#A4A623;}
	.st86{opacity:0.992;fill-rule:evenodd;clip-rule:evenodd;fill:#A8A7C0;enable-background:new    ;}
	.st87{fill-rule:evenodd;clip-rule:evenodd;fill:#513741;}
	.st88{fill-rule:evenodd;clip-rule:evenodd;fill:#8F9529;}
	.st89{fill-rule:evenodd;clip-rule:evenodd;fill:#806D40;}
	.st90{fill-rule:evenodd;clip-rule:evenodd;fill:#888F2B;}
	.st91{fill-rule:evenodd;clip-rule:evenodd;fill:#524C52;}
	.st92{fill-rule:evenodd;clip-rule:evenodd;fill:#282828;}
	.st93{fill-rule:evenodd;clip-rule:evenodd;fill:#B6B6C7;}
	.st94{fill-rule:evenodd;clip-rule:evenodd;fill:#413B41;}
	.st95{fill-rule:evenodd;clip-rule:evenodd;fill:#B9B9B9;}
	.st96{fill-rule:evenodd;clip-rule:evenodd;fill:#D7D7D7;}
	.st97{opacity:0.999;fill-rule:evenodd;clip-rule:evenodd;fill:#302F2F;enable-background:new    ;}
	.st98{opacity:0.955;fill-rule:evenodd;clip-rule:evenodd;fill:#3D3D3E;enable-background:new    ;}
	.st99{fill-rule:evenodd;clip-rule:evenodd;fill:#68687D;}
	.st100{fill-rule:evenodd;clip-rule:evenodd;fill:#3D3D3E;}
	.st101{fill-rule:evenodd;clip-rule:evenodd;fill:#39356A;}
	.st102{fill-rule:evenodd;clip-rule:evenodd;fill:#5C54CC;}
	.st103{fill-rule:evenodd;clip-rule:evenodd;fill:#5850C8;}
	.st104{opacity:0.994;fill-rule:evenodd;clip-rule:evenodd;fill:#D2D2D3;enable-background:new    ;}
	.st105{fill-rule:evenodd;clip-rule:evenodd;fill:#5048BE;}
	.st106{fill-rule:evenodd;clip-rule:evenodd;fill:#4B42BB;}
	.st107{fill-rule:evenodd;clip-rule:evenodd;fill:#453DB0;}
	.st108{fill-rule:evenodd;clip-rule:evenodd;fill:#383839;}
	.st109{fill-rule:evenodd;clip-rule:evenodd;fill:#3E35AD;}
	.st110{fill-rule:evenodd;clip-rule:evenodd;fill:#676767;}
	.st111{fill-rule:evenodd;clip-rule:evenodd;fill:#E0E106;}
	.st112{fill-rule:evenodd;clip-rule:evenodd;fill:#322AA2;}
	.st113{opacity:0.996;fill-rule:evenodd;clip-rule:evenodd;fill:#9190B4;enable-background:new    ;}
	.st114{fill-rule:evenodd;clip-rule:evenodd;fill:#2F279F;}
	.st115{fill-rule:evenodd;clip-rule:evenodd;fill:#C2C41B;}
	.st116{fill-rule:evenodd;clip-rule:evenodd;fill:#797979;}
	.st117{fill-rule:evenodd;clip-rule:evenodd;fill:#8B8B8A;}
	.st118{fill-rule:evenodd;clip-rule:evenodd;fill:#1B1504;}
	.st119{fill-rule:evenodd;clip-rule:evenodd;fill:#8F8F8E;}
	.st120{fill-rule:evenodd;clip-rule:evenodd;fill:#292829;}
	.st121{fill-rule:evenodd;clip-rule:evenodd;fill:#1F178F;}
	.st122{opacity:0.993;fill-rule:evenodd;clip-rule:evenodd;fill:#A8A7C0;enable-background:new    ;}
	.st123{fill-rule:evenodd;clip-rule:evenodd;fill:#191189;}
	.st124{fill-rule:evenodd;clip-rule:evenodd;fill:#1B138B;}
	.st125{fill-rule:evenodd;clip-rule:evenodd;fill:#7C7E3F;}
	.st126{fill-rule:evenodd;clip-rule:evenodd;fill:#868D2C;}
	.st127{fill-rule:evenodd;clip-rule:evenodd;fill:#979D25;}
	.st128{fill-rule:evenodd;clip-rule:evenodd;fill:#A1A621;}
	.st129{fill-rule:evenodd;clip-rule:evenodd;fill:#C0C313;}
	.st130{fill-rule:evenodd;clip-rule:evenodd;fill:#E2E305;}
	.st131{fill-rule:evenodd;clip-rule:evenodd;fill:#B4B239;}
	.st132{fill-rule:evenodd;clip-rule:evenodd;fill:#3D2500;}
	.st133{fill-rule:evenodd;clip-rule:evenodd;fill:#583B0E;}
	.st134{fill-rule:evenodd;clip-rule:evenodd;fill:#331F00;}
	.st135{fill-rule:evenodd;clip-rule:evenodd;fill:#B6B5C6;}
	.st136{fill-rule:evenodd;clip-rule:evenodd;fill:#C2C2CC;}
	.st137{fill-rule:evenodd;clip-rule:evenodd;fill:#1F177D;}
	.st138{opacity:0.994;fill-rule:evenodd;clip-rule:evenodd;fill:#2F302E;enable-background:new    ;}
	.st139{opacity:0.963;fill-rule:evenodd;clip-rule:evenodd;fill:#3D3E3D;enable-background:new    ;}
	.st140{opacity:0.996;fill-rule:evenodd;clip-rule:evenodd;fill:#D2D2D3;enable-background:new    ;}
	.st141{fill-rule:evenodd;clip-rule:evenodd;fill:#3D3E3D;}
	.st142{fill-rule:evenodd;clip-rule:evenodd;fill:#1BA302;}
	.st143{fill-rule:evenodd;clip-rule:evenodd;fill:#189601;}
	.st144{fill-rule:evenodd;clip-rule:evenodd;fill:#189B00;}
	.st145{fill-rule:evenodd;clip-rule:evenodd;fill:#158800;}
	.st146{fill-rule:evenodd;clip-rule:evenodd;fill:#188A03;}
	.st147{fill-rule:evenodd;clip-rule:evenodd;fill:#137B00;}
	.st148{fill-rule:evenodd;clip-rule:evenodd;fill:#148200;}
	.st149{fill-rule:evenodd;clip-rule:evenodd;fill:#4B2E02;}
	.st150{opacity:0.966;fill-rule:evenodd;clip-rule:evenodd;fill:#3D3D3D;enable-background:new    ;}
	.st151{fill-rule:evenodd;clip-rule:evenodd;fill:#187401;}
	.st152{fill-rule:evenodd;clip-rule:evenodd;fill:#116A00;}
	.st153{fill-rule:evenodd;clip-rule:evenodd;fill:#106501;}
	.st154{fill-rule:evenodd;clip-rule:evenodd;fill:#0E5800;}
	.st155{fill-rule:evenodd;clip-rule:evenodd;fill:#0E5701;}
	.st156{fill-rule:evenodd;clip-rule:evenodd;fill:#105C01;}
	.st157{fill-rule:evenodd;clip-rule:evenodd;fill:#271700;}
	.st158{fill-rule:evenodd;clip-rule:evenodd;fill:#E1E305;}
	.st159{fill-rule:evenodd;clip-rule:evenodd;fill:#DEDF08;}
	.st160{fill-rule:evenodd;clip-rule:evenodd;fill:#0C4901;}
	.st161{fill-rule:evenodd;clip-rule:evenodd;fill:#0F4D01;}
	.st162{fill-rule:evenodd;clip-rule:evenodd;fill:#C2C513;}
	.st163{fill-rule:evenodd;clip-rule:evenodd;fill:#AFB31B;}
	.st164{fill-rule:evenodd;clip-rule:evenodd;fill:#0A3D01;}
	.st165{fill-rule:evenodd;clip-rule:evenodd;fill:#A6AB1E;}
	.st166{fill-rule:evenodd;clip-rule:evenodd;fill:#0A3C01;}
	.st167{fill-rule:evenodd;clip-rule:evenodd;fill:#0A4101;}
	.st168{fill-rule:evenodd;clip-rule:evenodd;fill:#8A902B;}
	.st169{fill-rule:evenodd;clip-rule:evenodd;fill:#2F2F2F;}
	.st170{fill-rule:evenodd;clip-rule:evenodd;fill:#808928;}
	.st171{opacity:0.99;fill-rule:evenodd;clip-rule:evenodd;fill:#180E00;enable-background:new    ;}
	.st172{opacity:0.997;fill-rule:evenodd;clip-rule:evenodd;fill:#323232;enable-background:new    ;}
	.st173{opacity:0.798;fill-rule:evenodd;clip-rule:evenodd;fill:#202020;enable-background:new    ;}
</style>
<g id="图层_1">
	<g>
		<path class="st0" d="M187.5,92.5c3.7,0,7.3,0,11,0c-0.2,1.2,0.1,2.2,1,3c15.5,12.3,30,25.7,43.5,40c5,6.3,10,12.7,15,19
			c2.1,6.9,5.3,13.3,9.5,19c-0.7-0.3-1.3-0.7-2-1c-4.7-5-9.3-10-14-15c-3-3.7-6.3-7-10-10c-2.3-3-5-5.7-8-8c-1.3-2-3-3.7-5-5
			c-0.7-1.3-1.7-2.3-3-3c-2.3-2.7-4.7-5.3-7-8C208.5,112.8,198.1,102.5,187.5,92.5z"/>
	</g>
	<g>
		<path class="st1" d="M198.5,92.5c2,0,4,0,6,0c2.9,1.2,5.5,2.8,8,5c3.2,3,6.2,6.2,9,9.5c3.2,1.8,6.2,3.8,9,6
			c10.2,10.2,20.3,20.3,30.5,30.5c3.9,5.9,7.5,11.9,11,18c0.9,4.7,0.4,9.2-1.5,13.5c0.8,0.7,1.1,1.5,1,2.5c-1-0.7-2-1.3-3-2
			c-0.3-0.7-0.7-1.3-1-2c-4.2-5.7-7.4-12.1-9.5-19c-5-6.3-10-12.7-15-19c-13.5-14.3-28-27.7-43.5-40
			C198.6,94.7,198.3,93.7,198.5,92.5z"/>
	</g>
	<g>
		<path class="st2" d="M437.5,92.5c5.7-0.2,11.3,0,17,0.5c30.7,31.9,61.6,63.8,92.5,95.5c0.7,31.3,0.7,62.7,0,94
			c-0.1,3.5-1.3,6.5-3.5,9c-57.7,0-115.3,0-173,0c0-2.7,0-5.3,0-8c54.3,0,108.7,0,163,0c0-11.7,0-23.3,0-35c0-3.3,0-6.7,0-10
			c0.3-16.8,0-33.5-1-50c-0.7-1.3-1.7-2.3-3-3c-2-2.7-4.3-5-7-7c-3.3-4-7-7.7-11-11c-2.3-3-5-5.7-8-8c-1.7-2.3-3.7-4.3-6-6
			c-0.7-1.3-1.7-2.3-3-3c-1-1.7-2.3-3-4-4c-0.7-1.3-1.7-2.3-3-3c-1.3-2-3-3.7-5-5c-1-1.7-2.3-3-4-4c-1-1.7-2.3-3-4-4
			c-1-1.7-2.3-3-4-4C459.5,115.2,448.5,103.8,437.5,92.5z"/>
	</g>
	<g>
		<path class="st3" d="M13.5,92.5c58,0,116,0,174,0c10.6,10,21,20.3,31,31c-23.4-0.6-46.4-0.6-69,0c-0.7-0.3-1.3-0.7-2-1
			c-2-2.7-4.3-5-7-7c-2.8-3.2-5.8-6.2-9-9c-21.5-1.3-43.2-1.3-65,0c0.1,0.6,0.5,0.9,1,1c4.7,4,9,8.3,13,13c-14.1,0-28.1,0-42,0
			c-6.8-6.9-13.7-13.9-20.5-21C16.3,97.3,14.8,94.9,13.5,92.5z"/>
	</g>
	<g>
		<path class="st3" d="M208.5,92.5c76.3,0,152.7,0,229,0c11,11.3,22,22.7,33,34c-58.6-1-117.3-2.4-176-4c-1.2,0.4-2.2,1.1-3,2
			c-8.9-10.6-18.6-20.6-29-30c-14.8-1-29.8-1.3-45-1C214.3,93.8,211.3,93.5,208.5,92.5z"/>
	</g>
	<g>
		<path class="st4" d="M217.5,93.5c15.2-0.3,30.2,0,45,1c-10-0.2-20,0-30,0.5c15.3,8.3,28.1,19.4,38.5,33.5
			c7.1,11.4,13.7,23.1,20,35c1.9,8.8,3.4,17.1,4.5,25c-1.5,1-2.2,2.5-2,4.5c0.3,2.2,0.6,4.4,1,6.5c-0.8,0.3-1.5,0.8-2,1.5
			c3.9,6.9,6.3,14.4,7,22.5c-0.2,12.6-0.2,24.8,0,36.5c-1.2,0.2-2.2,0.7-3,1.5c-2.3,0-4.7,0-7,0c0.4-0.7,1.1-1.2,2-1.5
			c-1.6-3.1-2.6-6.4-3-10c0.5-0.4,0.8-0.9,1-1.5c-1.1-11.3-1.9-22.6-2.5-34c-1.8-3.6-2.9-7.3-3.5-11c-0.3,0-0.7,0-1,0
			c0-1.3,0-2.7,0-4c0.3-2.9,0-5.6-1-8c-1.4-2.4-2.7-4.7-4-7c-0.1-0.4,0.1-0.8,0.5-1c0.3,0.7,0.7,1.3,1,2c2.7-1.6,5.6-3.1,8.5-4.5
			c1-8.2-0.5-16-4.5-23.5c-12.4-23.9-29.9-43.2-52.5-58c-1-1.3-2-2.7-3-4C224,94.9,220.7,94.2,217.5,93.5z"/>
	</g>
	<g>
		<path class="st5" d="M131.5,106.5c-6,0-12,0-18,0c-15.5-0.3-30.8,0-46,1c-0.5-0.1-0.9-0.4-1-1C88.3,105.2,110,105.2,131.5,106.5z"
			/>
	</g>
	<g>
		<path class="st6" d="M262.5,94.5c10.4,9.4,20.1,19.4,29,30c1,1.7,2.3,3,4,4c0.6,2.3,2,3.9,4,5c0.7,1.3,1.7,2.3,3,3
			c1.1,1.9,2.4,3.6,4,5c0.7,1.3,1.7,2.3,3,3c0.5,1.7,1.5,3.1,3,4c0.7,1.3,1.7,2.3,3,3c1.2,2.4,2.9,4.4,5,6c2.3,2.7,4.7,5.4,7,8
			c2.3,4,5.3,7.3,9,10c0.9,2.6,2.6,4.6,5,6c0.6,0.9,0.9,1.9,1,3c-0.8,0.6-1.8,1-3,1c-10.6-1.4-21.3-1.9-32-1.5
			c-4.1,1.2-8.1,2.7-12,4.5c-1.1-7.9-2.6-16.2-4.5-25c-6.3-11.9-12.9-23.6-20-35c-10.4-14.1-23.2-25.2-38.5-33.5
			C242.5,94.5,252.5,94.3,262.5,94.5z"/>
	</g>
	<g>
		<path class="st7" d="M113.5,106.5c6,0,12,0,18,0c3.2,2.8,6.2,5.8,9,9c-2.4,1-3.9,0-4.5-3c-1,0.7-1.5,1.7-1.5,3
			c-2.6,4.6-6.6,7.3-12,8c2.3-1.6,4.3-3.6,6-6c-0.5-2.1-1.5-3.9-3-5.5c-11-0.7-22-0.7-33,0c-0.8,1.4-1.4,1.5-2,0.5
			c0.5-1,1.1-1.8,2-2.5c7.4-0.1,14.7-0.8,22-2C113.9,107.6,113.6,107.1,113.5,106.5z"/>
	</g>
	<g>
		<path class="st8" d="M470.5,126.5c1.7,1,3,2.3,4,4c-12.1,0.8-23.9,1.1-35.5,1c-28.4-1.5-56.8-2.5-85-3c-19.6,0-39.1,0-58.5,0
			c-1.7-1-3-2.3-4-4c0.8-0.9,1.8-1.6,3-2C353.2,124.1,411.9,125.5,470.5,126.5z"/>
	</g>
	<g>
		<path class="st9" d="M80.5,120.5c3,2.3,5.7,5,8,8c-14-0.3-28,0.1-42,1c-3.4-2.4-6-5.4-8-9C52.4,120.5,66.4,120.5,80.5,120.5z"/>
	</g>
	<g>
		<path class="st10" d="M147.5,122.5c0.7,0.3,1.3,0.7,2,1c2.3,3,5,5.7,8,8c0.5,1.4,1.5,2.1,3,2c0.7,1.3,1.7,2.3,3,3
			c3,3.7,6.3,7,10,10c4,4.7,8.3,9,13,13c3.1,2.6,6.1,5.5,9,8.5c-12,0.5-24,0.7-36,0.5c1.8-0.8,3.8-1.3,6-1.5c-3.1-0.6-4.1-2.3-3-5
			c3.6-1.5,7.3-2.9,11-4c0.5-0.6,0.9-1.2,1-2c-9.8-10.7-19.5-21.5-29-32.5C146,122.7,146.6,122.4,147.5,122.5z"/>
	</g>
	<g>
		<path class="st11" d="M218.5,123.5c2.3,2.7,4.7,5.3,7,8c-22.6-0.5-45.3-0.5-68,0c-3-2.3-5.7-5-8-8
			C172.1,122.9,195.1,122.9,218.5,123.5z"/>
	</g>
	<g>
		<path class="st12" d="M9.5,105.5c2.2,0.7,4,2,5.5,4c25.3,28.8,50.8,57.5,76.5,86c0,28,0,56,0,84c-3-4.8-4.5-10.1-4.5-16
			c-0.3-13-0.7-26-1-39c-0.6-6.2-2.6-11.9-6-17c-17.6-22.6-37.6-43-60-61c-0.9-2.4-1.9-4.8-3-7c-0.3,0.9-0.8,1.6-1.5,2
			C14.1,129.4,12.1,117.4,9.5,105.5z"/>
	</g>
	<g>
		<path class="st13" d="M204.5,92.5c1.3,0,2.7,0,4,0c2.8,1,5.8,1.3,9,1c3.2,0.7,6.5,1.4,10,2c1,1.3,2,2.7,3,4
			c22.6,14.8,40.1,34.1,52.5,58c4,7.5,5.5,15.3,4.5,23.5c-2.9,1.4-5.8,2.9-8.5,4.5c-0.3-0.7-0.7-1.3-1-2c-0.4,0.2-0.6,0.6-0.5,1
			c-2.7-1.7-4.7-4.1-6-7c0.1-1-0.2-1.8-1-2.5c1.9-4.3,2.4-8.8,1.5-13.5c-3.5-6.1-7.1-12.1-11-18c-10.2-10.2-20.3-20.3-30.5-30.5
			c-2.8-2.2-5.8-4.2-9-6c-2.8-3.3-5.8-6.5-9-9.5C210,95.3,207.4,93.7,204.5,92.5z"/>
	</g>
	<g>
		<path class="st14" d="M474.5,130.5c1.7,1,3,2.3,4,4c-7.1,0.9-14.1,1.2-21,1c-53-1.8-105.4-3-157-3.5c-0.6,0.4-0.9,0.9-1,1.5
			c-2-1.1-3.4-2.7-4-5c19.4,0,38.9,0,58.5,0c28.2,0.5,56.6,1.5,85,3C450.6,131.6,462.4,131.3,474.5,130.5z"/>
	</g>
	<g>
		<path class="st15" d="M122.5,123.5c-1.3,0-2.7,0-4,0c-0.1,2.2,0.4,4.2,1.5,6c6,6.4,12.4,12.4,19,18c2.2,6.5,0,9.3-6.5,8.5
			c-4.2-4.7-8.9-8.9-14-12.5c-1-2.9-2.7-5.4-5-7.5c-3.6-2-7-4.3-10-7c-4.5-2-9-3.8-13.5-5.5c-1.5-3.2-1.8-6.5-1-10
			c0.4-0.6,0.9-0.9,1.5-1c0.6,1,1.2,0.9,2-0.5c11-0.7,22-0.7,33,0c1.5,1.6,2.5,3.4,3,5.5C126.8,119.9,124.8,121.9,122.5,123.5z"/>
	</g>
	<g>
		<path class="st16" d="M140.5,115.5c2.7,2,5,4.3,7,7c-0.9-0.1-1.5,0.2-2,1c9.5,11,19.2,21.8,29,32.5c-0.1,0.8-0.5,1.4-1,2
			c-3.7,1.1-7.4,2.5-11,4c-1.1,2.7-0.1,4.4,3,5c-2.2,0.2-4.2,0.7-6,1.5c-3,0-6,0-9,0c-1.3-1.3-2.6-2.7-4-4c4.5-3.2,9.5-5.4,15-6.5
			c0.6-0.7,0.9-1.6,1-2.5c-8.7-10.2-17.7-20.4-27-30.5c0.7-1.3,0.4-2.7-1-4c1.3-1.9,1.3-3.8,0-5.5c0-1.3,0.5-2.3,1.5-3
			C136.6,115.5,138.1,116.5,140.5,115.5z"/>
	</g>
	<g>
		<path class="st17" d="M225.5,131.5c1.3,0.7,2.3,1.7,3,3c-7,1-13.8,1.3-20.5,1c-15.8-0.7-31.6-1.4-47.5-2c-1.5,0.1-2.5-0.6-3-2
			C180.2,131,202.9,131,225.5,131.5z"/>
	</g>
	<g>
		<path class="st18" d="M88.5,128.5c2,1.3,3.7,3,5,5c-5.1,1.3-10.6,2-16.5,2c-8.7-0.5-17.2-0.5-25.5,0c-1.6-2-3.3-4-5-6
			C60.5,128.6,74.5,128.2,88.5,128.5z"/>
	</g>
	<g>
		<path class="st19" d="M478.5,134.5c1.7,1,3,2.3,4,4c-54.7-0.5-109.6-1.5-164.5-3c-5.3,0-10.5,0.3-15.5,1c-1.3-0.7-2.3-1.7-3-3
			c0.1-0.6,0.4-1.1,1-1.5c51.6,0.5,104,1.7,157,3.5C464.4,135.7,471.4,135.4,478.5,134.5z"/>
	</g>
	<g>
		<path class="st20" d="M160.5,133.5c15.9,0.6,31.7,1.3,47.5,2c6.7,0.3,13.5,0,20.5-1c2,1.3,3.7,3,5,5c-6.1,0.9-12.1,1.3-18,1
			c-15.6-0.8-31.3-1.3-47-1.5c-1.6-1.1-3.2-1.9-5-2.5C162.2,135.8,161.2,134.8,160.5,133.5z"/>
	</g>
	<g>
		<path class="st21" d="M482.5,138.5c2,1.3,3.7,3,5,5c-53-0.6-106.1-1.6-159.5-3c-7.3,0-14.5,0.3-21.5,1c-1.6-1.4-2.9-3.1-4-5
			c5-0.7,10.2-1,15.5-1C372.9,137,427.8,138,482.5,138.5z"/>
	</g>
	<g>
		<path class="st22" d="M93.5,133.5c3,2.7,6,5.4,9,8c-14.5,0.1-29.1,0.4-44,1c-2.7-2-5-4.3-7-7c8.3-0.5,16.8-0.5,25.5,0
			C82.9,135.5,88.4,134.8,93.5,133.5z"/>
	</g>
	<g>
		<path class="st23" d="M487.5,143.5c1.3,0.7,2.3,1.7,3,3c-6.6,0.9-13.1,1.3-19.5,1c-50.9-1.6-101.9-2.9-153-4c-3,0-5.9,0.3-8.5,1
			c-1.3-0.7-2.3-1.7-3-3c7-0.7,14.2-1,21.5-1C381.4,141.9,434.5,142.9,487.5,143.5z"/>
	</g>
	<g>
		<path class="st24" d="M163.5,136.5c1.8,0.6,3.4,1.4,5,2.5c15.7,0.2,31.4,0.7,47,1.5c5.9,0.3,11.9-0.1,18-1c3,2.3,5.7,5,8,8
			c-1.8,1.5-3.5,1.3-5-0.5c-14.9-0.2-29.7-0.7-44.5-1.5c-6.1-0.3-12.3,0.1-18.5,1C169.8,143.5,166.5,140.2,163.5,136.5z"/>
	</g>
	<g>
		<path class="st25" d="M102.5,141.5c2.7,2,5,4.3,7,7c-15.3,0.5-30.3,0.9-45,1c-2.2-2.1-4.2-4.4-6-7
			C73.4,141.9,88,141.6,102.5,141.5z"/>
	</g>
	<g>
		<path class="st26" d="M490.5,146.5c1.7,1,3,2.3,4,4c-51-1-102.2-2-153.5-3c-9.7,0-19.2,0.3-28.5,1c-1.5-0.9-2.5-2.3-3-4
			c2.6-0.7,5.5-1,8.5-1c51.1,1.1,102.1,2.4,153,4C477.4,147.8,483.9,147.4,490.5,146.5z"/>
	</g>
	<g>
		<path class="st27" d="M494.5,150.5c1.3,0.7,2.3,1.7,3,3c-55.6-0.4-111.2-1.4-167-3c-5.2,0-10.2,0.3-15,1c-1.3-0.7-2.3-1.7-3-3
			c9.3-0.7,18.8-1,28.5-1C392.3,148.5,443.5,149.5,494.5,150.5z"/>
	</g>
	<g>
		<path class="st28" d="M241.5,147.5c3.7,3,7,6.3,10,10c-3.3,1-6.6,1.2-10,0.5c2.3-0.3,4.7-0.7,7-1c-16.5-0.8-32.6-1.3-48.5-1.5
			c-4.8,0.2-9.7,0.3-14.5,0.5c1.9,1,2.2,2.1,1,3.5c-4.7-4-9-8.3-13-13c6.2-0.9,12.4-1.3,18.5-1c14.8,0.8,29.6,1.3,44.5,1.5
			C238,148.8,239.7,149,241.5,147.5z"/>
	</g>
	<g>
		<path class="st29" d="M497.5,153.5c2.3,1.7,4.3,3.7,6,6c-9.6,1-19.1,1.3-28.5,1c-42.3-1.3-84.7-2.6-127-4c-8.8,0.2-18,0.5-27.5,1
			c-2.1-1.6-3.8-3.6-5-6c4.8-0.7,9.8-1,15-1C386.3,152.1,441.9,153.1,497.5,153.5z"/>
	</g>
	<g>
		<path class="st30" d="M91.5,279.5c0.2,1.3-0.1,2.3-1,3c-2.3-1.7-4.3-3.7-6-6c1-0.6,0.9-1.2-0.5-2c-0.2-16-0.9-32-2-48
			c-0.7-3.1-1.7-6.1-3-9c-7.1-9.1-14.6-18-22.5-26.5c-13.6-10.4-26.6-21.2-39-32.5c0.1-5.8-0.6-11.5-2-17c0.7-0.4,1.2-1.1,1.5-2
			c1.1,2.2,2.1,4.6,3,7c22.4,18,42.4,38.4,60,61c3.4,5.1,5.4,10.8,6,17c0.3,13,0.7,26,1,39C87,269.4,88.5,274.7,91.5,279.5z"/>
	</g>
	<g>
		<path class="st31" d="M109.5,148.5c3.7,3,7,6.3,10,10c-15-0.6-30,0.1-45,2c-3.3-3.6-6.6-7.3-10-11
			C79.2,149.4,94.2,149,109.5,148.5z"/>
	</g>
	<g>
		<path class="st32" d="M67.5,107.5c15.2-1,30.5-1.3,46-1c0.1,0.6,0.4,1.1,1,1.5c-7.3,1.2-14.6,1.9-22,2c-0.9,0.7-1.5,1.5-2,2.5
			c-0.6,0.1-1.1,0.4-1.5,1c-0.8,3.5-0.5,6.8,1,10c4.5,1.7,9,3.5,13.5,5.5c3,2.7,6.4,5,10,7c2.3,2.1,4,4.6,5,7.5
			c5.1,3.6,9.8,7.8,14,12.5c6.5,0.8,8.7-2,6.5-8.5c-6.6-5.6-13-11.6-19-18c-1.1-1.8-1.6-3.8-1.5-6c1.3,0,2.7,0,4,0
			c5.4-0.7,9.4-3.4,12-8c1.3,1.7,1.3,3.6,0,5.5c1.4,1.3,1.7,2.7,1,4c9.3,10.1,18.3,20.3,27,30.5c-0.1,0.9-0.4,1.8-1,2.5
			c-5.5,1.1-10.5,3.3-15,6.5c1.4,1.3,2.7,2.7,4,4c-7,0.2-14,0-21-0.5c-3.2-3.4-6.5-6.5-10-9.5c-3-3.7-6.3-7-10-10c-2-2.7-4.3-5-7-7
			c-3-2.6-6-5.3-9-8c-1.3-2-3-3.7-5-5c-2.3-3-5-5.7-8-8C76.5,115.8,72.2,111.5,67.5,107.5z"/>
	</g>
	<g>
		<path class="st33" d="M503.5,159.5c3,2.3,5.7,5,8,8c-1.9,0.6-3.9,0.9-6,1c-37.6-1.3-75.1-2.7-112.5-4c-21.9-0.3-43.7,0-65.5,1
			c-2.3-2.6-4.7-5.3-7-8c9.5-0.5,18.7-0.8,27.5-1c42.3,1.4,84.7,2.7,127,4C484.4,160.8,493.9,160.5,503.5,159.5z"/>
	</g>
	<g>
		<path class="st34" d="M17.5,158.5c12.4,11.3,25.4,22.1,39,32.5c7.9,8.5,15.4,17.4,22.5,26.5c1.3,2.9,2.3,5.9,3,9
			c1.1,16,1.8,32,2,48c1.4,0.8,1.5,1.4,0.5,2c-1.7-0.5-3.1-1.5-4-3c0.4,0.1,0.8-0.1,1-0.5c-1.8-3.9-2.8-8.1-3-12.5
			c0.8-10.1,0.6-20.5-0.5-31c-0.8-2.7-1.8-5.4-3-8c-3.2-2.3-5.3-5.3-6.5-9c-5-3.5-9.7-7.7-14-12.5c-10.9-6.9-21.2-14.6-31-23
			c-2.3-2.2-4-4.7-5-7.5C18.8,165.7,18.4,162.1,17.5,158.5z"/>
	</g>
	<g>
		<path class="st35" d="M251.5,157.5c4.7,5,9.3,10,14,15c-24.1,0.5-48.8,0.5-74,0c-20.6-1.4-41.3-2.3-62-2.5c-0.7-0.7-1.3-1.3-2-2
			c-14-0.2-28-0.7-42-1.5c-1.5,0-2.9,0.3-4,1c-2.7-2-5-4.3-7-7c15-1.9,30-2.6,45-2c3.5,3,6.8,6.1,10,9.5c7,0.5,14,0.7,21,0.5
			c3,0,6,0,9,0c12,0.2,24,0,36-0.5c-2.9-3-5.9-5.9-9-8.5c1.2-1.4,0.9-2.5-1-3.5c4.8-0.2,9.7-0.3,14.5-0.5c15.9,0.2,32,0.7,48.5,1.5
			c-2.3,0.3-4.7,0.7-7,1C244.9,158.7,248.2,158.5,251.5,157.5z"/>
	</g>
	<g>
		<path class="st36" d="M511.5,167.5c4,3.3,7.7,7,11,11c-47.6-0.5-95.1-1.5-142.5-3c-1.7,0.5-3.6,0.9-5.5,1c-12.5-0.7-25-1.3-37.5-2
			c-0.4,0.2-0.6,0.6-0.5,1c-3.7-2.7-6.7-6-9-10c21.8-1,43.6-1.3,65.5-1c37.4,1.3,74.9,2.7,112.5,4
			C507.6,168.4,509.6,168.1,511.5,167.5z"/>
	</g>
	<g>
		<path class="st37" d="M18.5,169.5c1,2.8,2.7,5.3,5,7.5c9.8,8.4,20.1,16.1,31,23c4.3,4.8,9,9,14,12.5c1.2,3.7,3.3,6.7,6.5,9
			c1.2,2.6,2.2,5.3,3,8c1.1,10.5,1.3,20.9,0.5,31c0.2,4.4,1.2,8.6,3,12.5c-0.2,0.4-0.6,0.6-1,0.5c-3.7-3.4-7.4-6.7-11-10
			c1.3-1.1,2.5-0.8,3.5,1c1.1-13.7-0.5-27.1-5-40c-4.1-7.4-9.6-13.6-16.5-18.5c-10.6-6.2-20.8-13-30.5-20.5c-0.3-2.3-0.7-4.7-1-7
			c-0.8,3.9-1.3,3.9-1.5,0C18.5,175.5,18.5,172.5,18.5,169.5z"/>
	</g>
	<g>
		<path class="st38" d="M265.5,172.5c0.7,0.3,1.3,0.7,2,1c0.3,0.7,0.7,1.3,1,2c-1.3,0.7-1.3,1.5,0,2.5c-8,0.2-16,0.3-24,0.5
			c-38-0.7-75.8-1.7-113.5-3c-1.8,0.1-3.6,0.4-5.5,1c-12-1-24-1.9-36-2.5c-1.5-1.5-3-3-4.5-4.5c-0.4,0.2-0.6,0.6-0.5,1
			c-1.3-0.7-2.3-1.7-3-3c1.1-0.7,2.5-1,4-1c14,0.8,28,1.3,42,1.5c0.7,0.7,1.3,1.3,2,2c20.7,0.2,41.4,1.1,62,2.5
			C216.7,173,241.4,173,265.5,172.5z"/>
	</g>
	<g>
		<path class="st39" d="M522.5,178.5c2.7,2,5,4.3,7,7c-9.3-0.6-18.7-1.3-28-2c-0.6,0.2-1.1,0.5-1.5,1c-28.7-0.9-57.3-1.9-86-3
			c-23.8-0.2-48-0.2-72.5,0c-2.4-1.4-4.1-3.4-5-6c-0.1-0.4,0.1-0.8,0.5-1c12.5,0.7,25,1.3,37.5,2c1.9-0.1,3.8-0.5,5.5-1
			C427.4,177,474.9,178,522.5,178.5z"/>
	</g>
	<g>
		<path class="st40" d="M268.5,175.5c1,0.7,2,1.3,3,2c1.3,2.9,3.3,5.3,6,7c1.3,2.3,2.6,4.6,4,7c-58.5,1.1-117.2,2.1-176,3
			c0-0.7-0.3-1-1-1c-6.7-7.7-13.4-15.4-20-23c-0.1-0.4,0.1-0.8,0.5-1c1.5,1.5,3,3,4.5,4.5c12,0.6,24,1.5,36,2.5
			c1.9-0.6,3.7-0.9,5.5-1c37.7,1.3,75.5,2.3,113.5,3c8-0.2,16-0.3,24-0.5C267.2,177,267.2,176.2,268.5,175.5z"/>
	</g>
	<g>
		<path class="st41" d="M529.5,185.5c1.3,0.7,2.3,1.7,3,3c-61.3,0.3-122.7,1-184,2c-0.8-1.2-1.8-2.2-3-3c-0.7-1.3-1.7-2.3-3-3
			c-0.1-1.1-0.4-2.1-1-3c24.5-0.2,48.7-0.2,72.5,0c28.7,1.1,57.3,2.1,86,3c0.4-0.5,0.9-0.8,1.5-1
			C510.8,184.2,520.2,184.9,529.5,185.5z"/>
	</g>
	<g>
		<path class="st42" d="M345.5,187.5c1.2,0.8,2.2,1.8,3,3c0.9,3.2,1.2,6.6,1,10c0,0.7,0,1.3,0,2c-0.7,0-1-0.3-1-1
			c0.2-1.4,0-2.7-0.5-4c-1.5,2.9-3.7,3.5-6.5,2c-1.1,0-2.1-0.4-3-1c-7.4,2.6-15.1,4.3-23,5c-4.6-1.1-8.9-2.8-13-5
			c-3.5-5.6-2.2-9.4,4-11.5c10.3-0.7,20.7-0.7,31,0c1.4,0.4,2.7,0.9,4,1.5C342.7,187.8,344.1,187.4,345.5,187.5z"/>
	</g>
	<g>
		<path class="st43" d="M532.5,188.5c0,3.7,0,7.3,0,11c-16.8-0.9-33.3-1.3-49.5-1c-43.7,0.7-87.3,1.3-131,2c-0.8-2.6-1.3-2.6-1.5,0
			c-0.3,0-0.7,0-1,0c0.2-3.4-0.1-6.8-1-10C409.8,189.5,471.2,188.8,532.5,188.5z"/>
	</g>
	<g>
		<path class="st44" d="M18.5,178.5c0.2,3.9,0.7,3.9,1.5,0c0.3,2.3,0.7,4.7,1,7c9.7,7.5,19.9,14.3,30.5,20.5
			c6.9,4.9,12.4,11.1,16.5,18.5c4.5,12.9,6.1,26.3,5,40c-1-1.8-2.2-2.1-3.5-1c-18.4-17-37-33.7-56-50c0-0.7-0.3-1-1-1
			C15,201.1,17,189.8,18.5,178.5z"/>
	</g>
	<g>
		<path class="st45" d="M281.5,191.5c1,2.4,1.3,5.1,1,8c-0.7-0.4-1.2-1.1-1.5-2c-4,0.7-8,1.3-12,2c-4.5-0.5-9.3-0.8-14.5-1
			c-50.4,0.8-100.1,1.5-149,2c0-2,0-4,0-6C164.3,193.6,223,192.6,281.5,191.5z"/>
	</g>
	<g>
		<path class="st46" d="M282.5,199.5c0,1.3,0,2.7,0,4c0,1,0,2,0,3c-59,0.3-118,0.6-177,1c0-2.3,0-4.7,0-7c48.9-0.5,98.6-1.2,149-2
			c5.2,0.2,10,0.5,14.5,1c4-0.7,8-1.3,12-2C281.3,198.4,281.8,199.1,282.5,199.5z"/>
	</g>
	<g>
		<path class="st47" d="M532.5,199.5c0,2.3,0,4.7,0,7c-60.7,0-121.3,0-182,0c0-2,0-4,0-6c0.2-2.6,0.7-2.6,1.5,0
			c43.7-0.7,87.3-1.3,131-2C499.2,198.2,515.7,198.6,532.5,199.5z"/>
	</g>
	<g>
		<path class="st48" d="M342.5,184.5c1.3,0.7,2.3,1.7,3,3c-1.4-0.1-2.8,0.3-4,1c-1.3-0.6-2.6-1.1-4-1.5c-10.3-0.7-20.7-0.7-31,0
			c-6.2,2.1-7.5,5.9-4,11.5c4.1,2.2,8.4,3.9,13,5c7.9-0.7,15.6-2.4,23-5c0.9,0.6,1.9,1,3,1c-6,4.3-12.7,7.1-20,8.5
			c-2.6,1-4.9,2.5-7,4.5c-4.7-4.4-9.6-8.8-14.5-13c-1.8,1-3.6,1-5.5,0c-0.4-2.1-0.7-4.3-1-6.5c-0.2-2,0.5-3.5,2-4.5
			c3.9-1.8,7.9-3.3,12-4.5c10.7-0.4,21.4,0.1,32,1.5C340.7,185.5,341.7,185.1,342.5,184.5z"/>
	</g>
	<g>
		<path class="st49" d="M348.5,201.5c-1.8,1.3-3.8,2.3-6,3c0,1.9-0.3,3.9-1,6c-2.1,0-3.9,0.6-5.5,2c-1.5,2.5-2.5,5.1-3,8
			c0.3,13.3,0.5,26.6,0.5,40c2,0,4,0,6,0c0,0.3,0,0.7,0,1c-14.3,0-28.7,0-43,0c0.8-0.8,1.8-1.3,3-1.5c-0.2-11.7-0.2-23.9,0-36.5
			c-0.7-8.1-3.1-15.6-7-22.5c0.5-0.7,1.2-1.2,2-1.5c1.9,1,3.7,1,5.5,0c4.9,4.2,9.8,8.6,14.5,13c2.1-2,4.4-3.5,7-4.5
			c7.3-1.4,14-4.2,20-8.5c2.8,1.5,5,0.9,6.5-2C348.5,198.8,348.7,200.1,348.5,201.5z"/>
	</g>
	<g>
		<path class="st50" d="M282.5,206.5c0,1.7,0,3.3,0,5c-59.1,0-118.1,0.6-177,2c0-2,0-4,0-6C164.5,207.1,223.5,206.8,282.5,206.5z"/>
	</g>
	<g>
		<path class="st51" d="M350.5,206.5c60.7,0,121.3,0,182,0c0,3,0,6,0,9c-0.9-0.7-1.2-1.7-1-3c-45.3,0-90.5,0-135.5,0
			c-15.3,0.4-30.5,1.4-45.5,3C350.5,212.5,350.5,209.5,350.5,206.5z"/>
	</g>
	<g>
		<path class="st52" d="M283.5,203.5c0.6,3.7,1.7,7.4,3.5,11c0.6,11.4,1.4,22.7,2.5,34c-0.2,0.6-0.5,1.1-1,1.5c0.4,3.6,1.4,6.9,3,10
			c-0.9,0.3-1.6,0.8-2,1.5c-1.7,0-3.3,0-5,0c0-2,0-4,0-6c0-1.7,0-3.3,0-5c0-2.3,0-4.7,0-7c0.3-8.5,0-16.9-1-25
			C283.5,213.5,283.5,208.5,283.5,203.5z"/>
	</g>
	<g>
		<path class="st53" d="M12.5,212.5c0.7,0,1,0.3,1,1c-0.4-0.1-0.8,0.1-1,0.5c4.4,7.4,10.4,13,18,17c18.6,20.2,38.6,38.7,60,55.5
			c1,2.2,1.3,4.6,1,7C64.7,269.9,38,246,11.5,222c-1.6-1.1-3.2-1.9-5-2.5c-1.6-2.3-3.6-4.3-6-6C4.4,212.5,8.4,212.2,12.5,212.5z"/>
	</g>
	<g>
		<path class="st54" d="M282.5,211.5c0,3.7,0,7.3,0,11c-2.9-1.5-6.1-2.5-9.5-3c-28.1,1-56.3,1.3-84.5,1c0.2-1.3-0.1-2.3-1-3
			c-0.3,0-0.7,0-1,0c-4,0-8,0-12,0c-1,2.4-1.3,5.1-1,8c-0.7,0.4-1.2,1.1-1.5,2c-3.1-1-6.2-1.3-9.5-1c0.2,1.3-0.1,2.3-1,3
			c0.3-4.2,0-8.2-1-12c-4.3,0-8.7,0-13,0c-1,3.1-1.3,6.5-1,10c-1-0.6-2-1.3-3-2c-11.8,0.8-24.2,1.2-37,1c0.2,1.3-0.1,2.3-1,3
			c0-5.3,0-10.7,0-16C164.4,212.1,223.4,211.5,282.5,211.5z"/>
	</g>
	<g>
		<path class="st55" d="M341.5,210.5c0.9,0.7,1.2,1.7,1,3c1.1-0.1,2.1,0,3,0.5c-1.6,1.8-2.4,4-2.5,6.5c-0.8,12-0.6,24,0.5,36
			c0,2.7-1.4,4-4,4c-2,0-4,0-6,0c0-13.4-0.2-26.7-0.5-40c0.5-2.9,1.5-5.5,3-8C337.6,211.1,339.4,210.5,341.5,210.5z"/>
	</g>
	<g>
		<path class="st56" d="M348.5,201.5c0,0.7,0.3,1,1,1c0,8.3,0,16.7,0,25c0,5.7,0,11.3,0,17s0,11.3,0,17c-3.3,0-6.7,0-10,0
			c0-0.3,0-0.7,0-1c2.6,0,4-1.3,4-4c-1.1-12-1.3-24-0.5-36c0.1-2.5,0.9-4.7,2.5-6.5c-0.9-0.5-1.9-0.6-3-0.5c0.2-1.3-0.1-2.3-1-3
			c0.7-2.1,1-4.1,1-6C344.7,203.8,346.7,202.8,348.5,201.5z"/>
	</g>
	<g>
		<path class="st57" d="M532.5,215.5c0,2.7,0,5.3,0,8c-0.9-0.7-1.2-1.7-1-3c-60.2-0.3-120.4,0.4-180.5,2c-0.5-2.3-0.7-4.6-0.5-7
			c15-1.6,30.2-2.6,45.5-3c45,0,90.2,0,135.5,0C531.3,213.8,531.6,214.8,532.5,215.5z"/>
	</g>
	<g>
		<path class="st58" d="M187.5,217.5c0.9,0.7,1.2,1.7,1,3c28.2,0.3,56.4,0,84.5-1c3.4,0.5,6.6,1.5,9.5,3c0.1,1.1,0,2.1-0.5,3
			c-11.7-1-23-1-34,0c-1.8-2.2-3.6-2.3-5.5-0.5c-18,0.5-36,0.7-54,0.5c0.3,1.6-0.1,2.9-1,4C187.5,225.5,187.5,221.5,187.5,217.5z"/>
	</g>
	<g>
		<path class="st59" d="M349.5,200.5c0.3,0,0.7,0,1,0c0,2,0,4,0,6c0,3,0,6,0,9c-0.2,2.4,0,4.7,0.5,7c60.1-1.6,120.3-2.3,180.5-2
			c-0.2,1.3,0.1,2.3,1,3c0,1.3,0,2.7,0,4c-56.1,0.1-112.6,0.8-169.5,2c-4.4-1.6-8.6-1.2-12.5,1c0.2-1.3-0.1-2.3-1-3
			c0-8.3,0-16.7,0-25C349.5,201.8,349.5,201.2,349.5,200.5z"/>
	</g>
	<g>
		<path class="st60" d="M6.5,219.5c1.8,0.6,3.4,1.4,5,2.5c26.5,24,53.2,47.9,80,71.5c0,0.3,0,0.7,0,1c0.3,28.2,0,56.2-1,84
			c-0.7,0-1-0.3-1-1c-1.6-3.4-2.4-7.1-2.5-11c-0.3-13-0.7-26-1-39c-0.7-5.6-2.3-11-5-16c-18.5-24.1-39.6-45.6-63.5-64.5
			c-1.4-1.9-2.2-4.1-2.5-6.5c-0.2,1.2-0.7,2.2-1.5,3C11.2,235.5,8.8,227.5,6.5,219.5z"/>
	</g>
	<g>
		<path class="st61" d="M174.5,217.5c4,0,8,0,12,0c0,5.3,0,10.7,0,16c-0.9-1.1-1.3-2.4-1-4c-3.3,0-6.7,0-10,0c0.3,1.6-0.1,2.9-1,4
			C174.5,228.2,174.5,222.8,174.5,217.5z"/>
	</g>
	<g>
		<path class="st62" d="M91.5,195.5c1.3,29.3,1.3,58.7,0,88c-0.7,0-1-0.3-1-1c0.9-0.7,1.2-1.7,1-3C91.5,251.5,91.5,223.5,91.5,195.5
			z"/>
	</g>
	<g>
		<path class="st63" d="M147.5,217.5c4.3,0,8.7,0,13,0c0,4.7,0,9.3,0,14c-0.8,1.5-1.3,3.1-1.5,5c-3.6-1.6-6.9-1.3-10,1
			c-0.2-1.2-0.7-2.2-1.5-3C147.5,228.8,147.5,223.2,147.5,217.5z"/>
	</g>
	<g>
		<path class="st64" d="M282.5,203.5c0.3,0,0.7,0,1,0c0,5,0,10,0,15c0,4.3,0,8.7,0,13c-31.3,0.1-62.3,0.1-93,0c-1.2,0.8-2.2,1.8-3,3
			c0-1.7,0-3.3,0-5c0.9-1.1,1.3-2.4,1-4c18,0.2,36,0,54-0.5c1.9-1.8,3.7-1.7,5.5,0.5c11-1,22.3-1,34,0c0.5-0.9,0.6-1.9,0.5-3
			c0-3.7,0-7.3,0-11c0-1.7,0-3.3,0-5C282.5,205.5,282.5,204.5,282.5,203.5z"/>
	</g>
	<g>
		<path class="st65" d="M146.5,227.5c0,1.7,0,3.3,0,5c-13.7-0.3-27.4,0-41,1c0-1.3,0-2.7,0-4c0.9-0.7,1.2-1.7,1-3
			c12.8,0.2,25.2-0.2,37-1C144.5,226.2,145.5,226.9,146.5,227.5z"/>
	</g>
	<g>
		<path class="st66" d="M532.5,227.5c0,1,0,2,0,3c-35.9,0.5-71.7,1.2-107.5,2c-8-1-16-1.3-24-1c-17,0.4-33.8,1.4-50.5,3
			c0-1.3,0-2.7,0-4c3.9-2.2,8.1-2.6,12.5-1C419.9,228.3,476.4,227.6,532.5,227.5z"/>
	</g>
	<g>
		<path class="st67" d="M173.5,225.5c0,3.7,0,7.3,0,11c-3.6-0.8-7.3-1.2-11-1c0.3,1.6-0.1,2.9-1,4c0-3.3,0-6.7,0-10
			c0.9-0.7,1.2-1.7,1-3c3.3-0.3,6.4,0,9.5,1C172.3,226.6,172.8,225.9,173.5,225.5z"/>
	</g>
	<g>
		<path class="st68" d="M532.5,230.5c0.2,2,0,4-0.5,6c-16.3-1.3-32.8-2-49.5-2c-43.6,0.4-87.2,0.8-131,1c0,1,0,2,0,3
			c-0.3,0-0.7,0-1,0c0-1.3,0-2.7,0-4c16.7-1.6,33.5-2.6,50.5-3c8-0.3,16,0,24,1C460.8,231.7,496.6,231,532.5,230.5z"/>
	</g>
	<g>
		<path class="st69" d="M147.5,217.5c0,5.7,0,11.3,0,17c0,0.3,0,0.7,0,1c-1,1.8-1.3,3.8-1,6c-0.9-0.7-1.2-1.7-1-3
			c-13.2-0.3-26.4,0-39.5,1c-0.5-2-0.7-4-0.5-6c13.6-1,27.3-1.3,41-1c0-1.7,0-3.3,0-5C146.2,224,146.5,220.6,147.5,217.5z"/>
	</g>
	<g>
		<path class="st70" d="M532.5,188.5c1,16.5,1.3,33.2,1,50c-0.3,0-0.7,0-1,0c-60.9-0.4-121.3-0.4-181,0c0-1,0-2,0-3
			c43.8-0.2,87.4-0.6,131-1c16.7,0,33.2,0.7,49.5,2c0.5-2,0.7-4,0.5-6c0-1,0-2,0-3c0-1.3,0-2.7,0-4c0-2.7,0-5.3,0-8c0-3,0-6,0-9
			c0-2.3,0-4.7,0-7C532.5,195.8,532.5,192.2,532.5,188.5z"/>
	</g>
	<g>
		<path class="st71" d="M-0.5,92.5c4.7,0,9.3,0,14,0c1.3,2.4,2.8,4.8,4.5,7c6.8,7.1,13.7,14.1,20.5,21c2,3.6,4.6,6.6,8,9
			c1.7,2,3.4,4,5,6c2,2.7,4.3,5,7,7c1.8,2.6,3.8,4.9,6,7c3.4,3.7,6.7,7.4,10,11c2,2.7,4.3,5,7,7c0.7,1.3,1.7,2.3,3,3
			c6.6,7.6,13.3,15.3,20,23c0,17,0,34,0,51c0,3,0,6,0,9c0,10,0,20,0,30c54.3,0,108.7,0,163,0c0,4,0,8,0,12c-0.3,0-0.7,0-1,0
			c-53.7,0-107.3,0-161,0c-2.7,0-5.3,0-8,0c1.5-0.8,3.1-1.3,5-1.5c-2.5-0.3-4.8-1-7-2c-0.4-3.3-1.8-6.1-4-8.5
			c1.3-29.3,1.3-58.7,0-88c-25.7-28.5-51.2-57.2-76.5-86c-1.5-2-3.3-3.3-5.5-4c-3.1-3.9-6.4-7.6-10-11C-0.5,93.8-0.5,93.2-0.5,92.5z
			"/>
	</g>
	<g>
		<path class="st72" d="M283.5,231.5c0,2,0,4,0,6c-31.3,0.2-63.3,1.2-96,3c0-2,0-4,0-6c0.8-1.2,1.8-2.2,3-3
			C221.2,231.6,252.2,231.6,283.5,231.5z"/>
	</g>
	<g>
		<path class="st73" d="M186.5,233.5c0,3,0,6,0,9c-4.1-1.7-7.9-1.3-11.5,1c-0.5-3.3-0.7-6.6-0.5-10c0.9-1.1,1.3-2.4,1-4
			c3.3,0,6.7,0,10,0C185.2,231.1,185.6,232.4,186.5,233.5z"/>
	</g>
	<g>
		<path class="st74" d="M532.5,238.5c0,0.7,0,1.3,0,2c-60.7,0.5-121.4,1.2-182,2c0-1.3,0-2.7,0-4c0.3,0,0.7,0,1,0
			C411.2,238.1,471.6,238.1,532.5,238.5z"/>
	</g>
	<g>
		<path class="st75" d="M160.5,231.5c0,5.3,0,10.7,0,16c-4.3,1.3-8.7,1.3-13,0c0-4,0-8,0-12c0-0.3,0-0.7,0-1c0.8,0.8,1.3,1.8,1.5,3
			c3.1-2.3,6.4-2.6,10-1C159.2,234.6,159.7,233,160.5,231.5z"/>
	</g>
	<g>
		<path class="st76" d="M283.5,218.5c1,8.1,1.3,16.5,1,25c-20.8,0.8-41.6,1.4-62.5,2c-11.2-0.7-22.7-0.4-34.5,1c0-2,0-4,0-6
			c32.7-1.8,64.7-2.8,96-3c0-2,0-4,0-6C283.5,227.2,283.5,222.8,283.5,218.5z"/>
	</g>
	<g>
		<path class="st77" d="M349.5,227.5c0.9,0.7,1.2,1.7,1,3c0,1.3,0,2.7,0,4s0,2.7,0,4s0,2.7,0,4c60.6-0.8,121.3-1.5,182-2
			c0.1,1.6-0.5,2.8-2,3.5c-59.8,0.6-119.8,1.1-180,1.5c0-0.7-0.3-1-1-1C349.5,238.8,349.5,233.2,349.5,227.5z"/>
	</g>
	<g>
		<path class="st78" d="M104.5,193.5c0.7,0,1,0.3,1,1c0,2,0,4,0,6c0,2.3,0,4.7,0,7c0,2,0,4,0,6c0,5.3,0,10.7,0,16c0,1.3,0,2.7,0,4
			c-0.2,2,0,4,0.5,6c13.1-1,26.3-1.3,39.5-1c-0.2,1.3,0.1,2.3,1,3c0,1.7,0,3.3,0,5c-13.5-1.3-27-1.3-40.5,0c-0.3-0.9-0.8-1.6-1.5-2
			C104.5,227.5,104.5,210.5,104.5,193.5z"/>
	</g>
	<g>
		<path class="st79" d="M173.5,236.5c0,3.3,0,6.7,0,10c-4.1,0.3-7.9,1.3-11.5,3c-0.5-3.3-0.7-6.6-0.5-10c0.9-1.1,1.3-2.4,1-4
			C166.2,235.3,169.9,235.7,173.5,236.5z"/>
	</g>
	<g>
		<path class="st80" d="M532.5,238.5c0.3,0,0.7,0,1,0c0,3.3,0,6.7,0,10c-0.3,0-0.7,0-1,0c-53.8-0.2-107-0.2-159.5,0
			c-7.5,0.7-15,1.3-22.5,2c0-1.7,0-3.3,0-5c60.2-0.4,120.2-0.9,180-1.5c1.5-0.7,2.1-1.9,2-3.5C532.5,239.8,532.5,239.2,532.5,238.5z
			"/>
	</g>
	<g>
		<path class="st81" d="M284.5,243.5c0,2.3,0,4.7,0,7c-32.4-0.3-64.7,0-97,1c0-1.7,0-3.3,0-5c11.8-1.4,23.3-1.7,34.5-1
			C242.9,244.9,263.7,244.3,284.5,243.5z"/>
	</g>
	<g>
		<path class="st82" d="M532.5,248.5c0,1.3,0,2.7,0,4c-31.5,0.1-62.4,0.1-92.5,0c-29.7,0.7-59.3,1.3-89,2c-0.5-1.3-0.7-2.6-0.5-4
			c7.5-0.7,15-1.3,22.5-2C425.5,248.3,478.7,248.3,532.5,248.5z"/>
	</g>
	<g>
		<path class="st83" d="M104.5,244.5c0.7,0.4,1.2,1.1,1.5,2c13.5-1.3,27-1.3,40.5,0c0.6,4.8,0.3,7.1-1,7c-13.7,0-27.3,0-41,0
			C104.5,250.5,104.5,247.5,104.5,244.5z"/>
	</g>
	<g>
		<path class="st84" d="M284.5,250.5c0,1.7,0,3.3,0,5c-32.3-1.3-64.6-1.3-97,0c0-1.3,0-2.7,0-4C219.8,250.5,252.1,250.2,284.5,250.5
			z"/>
	</g>
	<g>
		<path class="st85" d="M174.5,217.5c0,5.3,0,10.7,0,16c-0.2,3.4,0,6.7,0.5,10c3.6-2.3,7.4-2.7,11.5-1c0,5,0,10,0,15
			c-4-2.7-8-2.7-12,0c0.2-1.3-0.1-2.3-1-3c0-2.7,0-5.3,0-8c0-3.3,0-6.7,0-10c0-3.7,0-7.3,0-11C173.2,222.6,173.5,219.9,174.5,217.5z
			"/>
	</g>
	<g>
		<path class="st3" d="M349.5,244.5c0.7,0,1,0.3,1,1c0,1.7,0,3.3,0,5c-0.2,1.4,0,2.7,0.5,4c29.7-0.7,59.3-1.3,89-2
			c30.1,0.1,61,0.1,92.5,0c0-1.3,0-2.7,0-4c0.3,0,0.7,0,1,0c0,11.7,0,23.3,0,35c-54.3,0-108.7,0-163,0c-0.3,0-0.7,0-1,0
			c0.2-5.3,0-10.7-0.5-16c-0.4-0.6-0.9-0.9-1.5-1c-0.5-2.1-1.9-3.6-4-4.5c-4.7-0.5-9.3-0.7-14-0.5
			C349.5,255.8,349.5,250.2,349.5,244.5z"/>
	</g>
	<g>
		<path class="st86" d="M89.5,377.5c-2.7-2-5-4.3-7-7c1.5-15.2,1-30.6-1.5-46c-1.3-2.7-2.7-5.3-4-8c-7.2-7.6-14.1-15.4-20.5-23.5
			c-12.8-9.5-25-19.6-36.5-30.5c-0.3-1-0.7-2-1-3c-0.4,1.3-1.3,1.9-2.5,2c-0.7-6-1.7-12-3-18c0.8-0.8,1.3-1.8,1.5-3
			c0.3,2.4,1.1,4.6,2.5,6.5c23.9,18.9,45,40.4,63.5,64.5c2.7,5,4.3,10.4,5,16c0.3,13,0.7,26,1,39C87.1,370.4,87.9,374.1,89.5,377.5z
			"/>
	</g>
	<g>
		<path class="st87" d="M160.5,217.5c1,3.8,1.3,7.8,1,12c0,3.3,0,6.7,0,10c-0.2,3.4,0,6.7,0.5,10c3.6-1.7,7.4-2.7,11.5-3
			c0,2.7,0,5.3,0,8c0,4.7,0,9.3,0,14c4.7,0,9.3,0,14,0c0-4.3,0-8.7,0-13c32.4-1.3,64.7-1.3,97,0c0,2,0,4,0,6
			c-6.9-1.5-12.4,0.5-16.5,6c-0.5,5.3-0.7,10.7-0.5,16c-54.3,0-108.7,0-163,0c0-10,0-20,0-30c13.7,0,27.3,0,41,0
			c1.3,0.1,1.6-2.2,1-7c0-1.7,0-3.3,0-5c-0.3-2.2,0-4.2,1-6c0,4,0,8,0,12c0,7,0,14,0,21c4.3,0,8.7,0,13,0c0-7,0-14,0-21
			c0-5.3,0-10.7,0-16C160.5,226.8,160.5,222.2,160.5,217.5z"/>
	</g>
	<g>
		<path class="st88" d="M147.5,247.5c4.3,1.3,8.7,1.3,13,0c0,7,0,14,0,21c-4.3,0-8.7,0-13,0C147.5,261.5,147.5,254.5,147.5,247.5z"
			/>
	</g>
	<g>
		<path class="st89" d="M186.5,217.5c0.3,0,0.7,0,1,0c0,4,0,8,0,12c0,1.7,0,3.3,0,5c0,2,0,4,0,6s0,4,0,6c0,1.7,0,3.3,0,5
			c0,1.3,0,2.7,0,4c0,4.3,0,8.7,0,13c-4.7,0-9.3,0-14,0c0-4.7,0-9.3,0-14c0.9,0.7,1.2,1.7,1,3c0,3.3,0,6.7,0,10c4,0,8,0,12,0
			c0-3.3,0-6.7,0-10c0-5,0-10,0-15c0-3,0-6,0-9C186.5,228.2,186.5,222.8,186.5,217.5z"/>
	</g>
	<g>
		<path class="st90" d="M186.5,257.5c0,3.3,0,6.7,0,10c-4,0-8,0-12,0c0-3.3,0-6.7,0-10C178.5,254.8,182.5,254.8,186.5,257.5z"/>
	</g>
	<g>
		<path class="st91" d="M284.5,261.5c1.7,0,3.3,0,5,0c2.3,0,4.7,0,7,0c14.3,0,28.7,0,43,0c3.3,0,6.7,0,10,0c4.7-0.2,9.3,0,14,0.5
			c2.1,0.9,3.5,2.4,4,4.5c-1.6,0.4-2.8,1.4-3.5,3c-0.3,11.3-0.7,22.7-1,34c-2-7.8-3.7-15.8-5-24c-1.6-5.4-4.8-9.6-9.5-12.5
			c-16.6-1.6-33.3-1.9-50-1c-19.2-1.5-27.3,7.3-24.5,26.5c-0.7,16.3-0.7,32.7,0,49c0.4,3.2,1.2,6.2,2.5,9c-3.1-0.4-6.1-1-9-2
			c0-17.7,0-35.3,0-53c0-4,0-8,0-12c-0.2-5.3,0-10.7,0.5-16C272.1,262,277.6,260,284.5,261.5z"/>
	</g>
	<g>
		<path class="st92" d="M13.5,213.5c19,16.3,37.6,33,56,50c3.6,3.3,7.3,6.6,11,10c0.9,1.5,2.3,2.5,4,3c1.7,2.3,3.7,4.3,6,6
			c0,0.7,0.3,1,1,1c2.2,2.4,3.6,5.2,4,8.5c2.2,1,4.5,1.7,7,2c-1.9,0.2-3.5,0.7-5,1.5c-1.7,0-3.3,0-5,0c0-0.7-0.3-1-1-1
			c0-0.3,0-0.7,0-1c0.3-2.4,0-4.8-1-7c-21.4-16.8-41.4-35.3-60-55.5c-7.6-4-13.6-9.6-18-17C12.7,213.6,13.1,213.4,13.5,213.5z"/>
	</g>
	<g>
		<path class="st93" d="M82.5,370.5c-1.5,0.1-2.5-0.6-3-2c-1.1-7.8-1.1-15.8,0-24c-0.5-6.5-1.6-12.8-3.5-19
			c-6.1-7.5-12.6-14.6-19.5-21.5c-11.4-7.7-22.4-15.9-33-24.5c-1.8-1.6-3-3.6-3.5-6c-0.7,0.8-1.5,1.1-2.5,1c0.3-4.4-0.1-8.8-1-13
			c1.2-0.1,2.1-0.7,2.5-2c0.3,1,0.7,2,1,3c11.5,10.9,23.7,21,36.5,30.5c6.4,8.1,13.3,15.9,20.5,23.5c1.3,2.7,2.7,5.3,4,8
			C83.5,339.9,84,355.3,82.5,370.5z"/>
	</g>
	<g>
		<path class="st37" d="M79.5,368.5c-3.7-3.4-7.4-6.7-11-10c1.8-0.8,3.3-0.1,4.5,2c1.5-14.1-1.5-27.5-9-40
			c-9.7-10.3-20.9-18.8-33.5-25.5c-3.9-2.9-7.4-6-10.5-9.5c-0.7,0.8-1.5,1.1-2.5,1c0-4,0-8,0-12c1,0.1,1.8-0.2,2.5-1
			c0.5,2.4,1.7,4.4,3.5,6c10.6,8.6,21.6,16.8,33,24.5c6.9,6.9,13.4,14,19.5,21.5c1.9,6.2,3,12.5,3.5,19
			C78.4,352.7,78.4,360.7,79.5,368.5z"/>
	</g>
	<g>
		<path class="st94" d="M367.5,266.5c0.6,0.1,1.1,0.4,1.5,1c0.5,5.3,0.7,10.7,0.5,16c-0.7,22.7-1.2,45.3-1.5,68
			c-0.9,1.3-1.8,2.6-2.5,4c-8.6,2.4-17.5,3.4-26.5,3c-23.2-0.3-46.4-1.3-69.5-3c-1.6-1.6-2.2-3.6-2-6c0-0.3,0-0.7,0-1
			c2.9,1,5.9,1.6,9,2c-1.3-2.8-2.1-5.8-2.5-9c-0.7-16.3-0.7-32.7,0-49c-2.8-19.2,5.3-28,24.5-26.5c16.7-0.9,33.4-0.6,50,1
			c4.7,2.9,7.9,7.1,9.5,12.5c1.3,8.2,3,16.2,5,24c0.3-11.3,0.7-22.7,1-34C364.7,267.9,365.9,266.9,367.5,266.5z"/>
	</g>
	<g>
		<path class="st95" d="M348.5,271.5c1.2,2.4,2.8,4.8,4.5,7c0.9,5.1-0.1,9.8-3,14c-0.9-1.6-1.9-2-3-1c-2.2,4.1-3.5,8.4-4,13
			c-0.5-3-0.7-6-0.5-9c1.3-3.8,2.2-7.8,2.5-12c4.3-2.9,4.5-5.7,0.5-8.5c-19.7-0.7-39.3-0.7-59,0c-5.7,1.2-7.2,4.4-4.5,9.5
			c0.7,1,1.6,1.1,2.5,0.5c0.7-1.3,1.3-2.7,2-4c15-0.8,30-0.7,45,0.5c0.7,0.7,1.4,1.3,2,2c-1.3,0-2.7,0-4,0c-0.8,1.5-1.3,3.1-1.5,5
			c-7.2-1.9-13.8-0.9-20,3c-1.3-0.5-2.5-1.1-3.5-2c-0.7-2.1-1.3-4.1-2-6c-4,0-8,0-12,0c0,3,0,6,0,9c-0.8,2.1-1.3,4.5-1.5,7
			c-0.3-1.3-0.7-2.7-1-4c-1.1,2.5-2.3,5-3.5,7.5c-1.9,0.7-3.4,0.2-4.5-1.5c-0.5-8-0.7-16-0.5-24c0.4-2.7,1.8-4.9,4-6.5
			C305.2,270.2,326.9,270.3,348.5,271.5z"/>
	</g>
	<g>
		<path class="st96" d="M342.5,295.5c0.3-3.9,0-7.5-1-11c-2.4-1-5.1-1.3-8-1c-0.6-0.7-1.3-1.3-2-2c-15-1.2-30-1.3-45-0.5
			c-0.7,1.3-1.3,2.7-2,4c-0.9,0.6-1.8,0.5-2.5-0.5c-2.7-5.1-1.2-8.3,4.5-9.5c19.7-0.7,39.3-0.7,59,0c4,2.8,3.8,5.6-0.5,8.5
			C344.7,287.7,343.8,291.7,342.5,295.5z"/>
	</g>
	<g>
		<path class="st97" d="M369.5,283.5c0.3,0,0.7,0,1,0c0,2.7,0,5.3,0,8c57.7,0,115.3,0,173,0c0.2,1-0.2,1.7-1,2c-2.5,2.4-5.5,3.4-9,3
			c-54.5-1-109.2-1.3-164-1c0,19.7,0,39.3,0,59c-2.6,5.1-7,7.5-13,7c-2,0-4,0-6,0c-3.7,0-7.3,0-11,0c-2.7,0-5.3,0-8,0
			c-11,0-22,0-33,0c-1.3,0-2.7,0-4,0c-2.3,0-4.7,0-7,0c-4,0.2-8,0-12-0.5c-2.5-1.3-4.5-3.2-6-5.5c23.1,1.7,46.3,2.7,69.5,3
			c9,0.4,17.9-0.6,26.5-3c0.7-1.4,1.6-2.7,2.5-4C368.3,328.8,368.8,306.2,369.5,283.5z"/>
	</g>
	<g>
		<path class="st98" d="M542.5,293.5c2.5,2.8,4,6.1,4.5,10c0.7,25.7,0.7,51.3,0,77c-0.3,2.9-1.1,5.5-2.5,8
			c-64.1-0.3-128.2,0-192.5,1c-0.5-3-0.7-6-0.5-9c60.7,0,121.3,0,182,0c0-28,0-56,0-84C537,296.9,540,295.9,542.5,293.5z"/>
	</g>
	<g>
		<path class="st99" d="M91.5,294.5c0.7,0,1,0.3,1,1c0,19,0,38,0,57c0.3,9,0,18-1,27c-0.6-0.1-0.9-0.5-1-1
			C91.5,350.7,91.8,322.7,91.5,294.5z"/>
	</g>
	<g>
		<path class="st100" d="M92.5,295.5c1.7,0,3.3,0,5,0c2.7,0,5.3,0,8,0c0,2.3,0,4.7,0,7c0,1.7,0,3.3,0,5c0,3,0,6,0,9c0,2.3,0,4.7,0,7
			c-1,18.8-1.3,37.8-1,57c61,0,122,0,183,0c0,3.7,0,7.3,0,11c-62.9-0.8-125.9-1.3-189-1.5c-2.3-1.6-3.8-3.8-4.5-6.5
			c-0.2-10.5-0.7-20.8-1.5-31C92.5,333.5,92.5,314.5,92.5,295.5z"/>
	</g>
	<g>
		<path class="st101" d="M533.5,296.5c-0.3,0-0.7,0-1,0c-54,0-108,0-162,0c0,1.7,0,3.3,0,5c0,4,0,8,0,12c0,8.3,0,16.7,0,25
			c0,4.7,0,9.3,0,14c0.2,1-0.2,1.7-1,2c0-19.7,0-39.3,0-59C424.3,295.2,479,295.5,533.5,296.5z"/>
	</g>
	<g>
		<path class="st102" d="M105.5,295.5c53.7,0,107.3,0,161,0c0.3,2.3-0.1,4.5-1,6.5c-10.7,0.2-21.4,0.7-32,1.5
			c-12.3,0.2-24.5-0.1-36.5-1c-28.7,0.7-57.3,1.3-86,2c-1.7-1-3.6-1.6-5.5-2C105.5,300.2,105.5,297.8,105.5,295.5z"/>
	</g>
	<g>
		<path class="st103" d="M532.5,296.5c0,2.7,0,5.3,0,8c-0.3,0-0.7,0-1,0c0.1-0.9-0.2-1.5-1-2c-53.1,0.7-105.9,1.3-158.5,2
			c-0.2-1.2-0.7-2.2-1.5-3c0-1.7,0-3.3,0-5C424.5,296.5,478.5,296.5,532.5,296.5z"/>
	</g>
	<g>
		<path class="st104" d="M68.5,358.5c-17-15.3-34-30.7-51-46c-1-1.3-2-2.7-3-4c1-7.3,2-14.7,3-22c1,0.1,1.8-0.2,2.5-1
			c3.1,3.5,6.6,6.6,10.5,9.5c12.6,6.7,23.8,15.2,33.5,25.5c7.5,12.5,10.5,25.9,9,40C71.8,358.4,70.3,357.7,68.5,358.5z"/>
	</g>
	<g>
		<path class="st105" d="M266.5,295.5c0.3,0,0.7,0,1,0c0,17.7,0,35.3,0,53c0,0.3,0,0.7,0,1c-1-5.8-1.3-11.8-1-18c0-6.3,0-12.7,0-19
			c0.2-1.7,0-3.4-0.5-5c-35.7,0.4-73.4,1.1-113,2c-11.6-0.5-23.5-0.5-35.5,0c-4.3-0.1-8.3-0.7-12-2c0-1.7,0-3.3,0-5
			c1.9,0.4,3.8,1,5.5,2c28.7-0.7,57.3-1.3,86-2c12,0.9,24.2,1.2,36.5,1c10.6-0.8,21.3-1.3,32-1.5C266.4,300,266.8,297.8,266.5,295.5
			z"/>
	</g>
	<g>
		<path class="st106" d="M370.5,301.5c0.8,0.8,1.3,1.8,1.5,3c52.6-0.7,105.4-1.3,158.5-2c0.8,0.5,1.1,1.1,1,2c0,1.7,0,3.3,0,5
			c-41.2,0-82.5,0.1-124,0.5c-1.9,0.3-3.8,0.8-5.5,1.5c-9.3-0.7-18.6-1.4-28-2c-1.7,0.8-2.5,2.1-2.5,4c-0.3,0-0.7,0-1,0
			C370.5,309.5,370.5,305.5,370.5,301.5z"/>
	</g>
	<g>
		<path class="st107" d="M105.5,307.5c3.7,1.3,7.7,1.9,12,2c12-0.5,23.9-0.5,35.5,0c39.6-0.9,77.3-1.6,113-2c0.5,1.6,0.7,3.3,0.5,5
			c-4.4,1.3-9.1,1.9-14,2c-21.3,0.8-42.7,1.2-64,1c0.3-1.6-0.1-2.9-1-4c-0.3,0-0.7,0-1,0c-4.3,0-8.7,0-13,0c0,6.3,0,12.7,0,19
			c0,2,0,4,0,6c-0.8-7.8-1.3-15.8-1.5-24c-0.5,2.3-0.7,4.6-0.5,7c-3,0-6,0-9,0c-0.8,9.1-1.5,23.5-2,43c0-4.7,0-9.3,0-14
			c0-4.3,0-8.7,0-13c0-2.7,0-5.3,0-8c0-5,0-10,0-15c-4.1-1-8.5-1.3-13-1c0,7.7,0,15.3,0,23c0,5,0,10,0,15c0,4.3,0,8.7,0,13
			c-1-9.2-1.3-18.5-1-28c0.4-9.1,0.1-15.4-1-19c-5.3,0.4-10.6,0.7-16,1c-2.3-0.7-4.7-1.3-7-2c-5.6,0.9-11.3,1.6-17,2
			C105.5,313.5,105.5,310.5,105.5,307.5z"/>
	</g>
	<g>
		<path class="st108" d="M14.5,308.5c1,1.3,2,2.7,3,4c-0.6,2.8,0.4,5.3,3,7.5c4.5,2.7,8.9,5.7,13,9c2.4,5.4,6.4,9.1,12,11
			c13.6,15.8,28.6,29.9,45,42.5c1,2.2,1.3,4.6,1,7c-27.7-25.1-55.7-49.7-84-74c-3.3-2.1-5.4-4.7-6.5-8
			C5.4,308.5,9.9,308.8,14.5,308.5z"/>
	</g>
	<g>
		<path class="st109" d="M531.5,304.5c0.3,0,0.7,0,1,0c0,2.7,0,5.3,0,8c-0.9,0.7-1.2,1.7-1,3c-53.5,1.1-106.8,1.8-160,2
			c0-1.3,0-2.7,0-4c0-1.9,0.8-3.2,2.5-4c9.4,0.6,18.7,1.3,28,2c1.7-0.7,3.6-1.2,5.5-1.5c41.5-0.4,82.8-0.5,124-0.5
			C531.5,307.8,531.5,306.2,531.5,304.5z"/>
	</g>
	<g>
		<path class="st110" d="M355.5,278.5c1.2,19.5,1.3,39.2,0.5,59c-0.8,4.8-3.7,7.7-8.5,8.5c-9.8,0.2-19.7,0.3-29.5,0.5
			c-11.2,0.1-22.4-0.4-33.5-1.5c-2.1-0.9-3.6-2.4-4.5-4.5c-0.5-6.7-0.7-13.3-0.5-20c3,5.1,5.9,10.4,8.5,16c2.1,3,4.9,4.8,8.5,5.5
			c7.1,1.3,13.7,0.3,20-3c9-0.3,18-1,27-2c4-0.7,6.8-2.8,8.5-6.5c2.7-10.1,3.9-20.5,3.5-31C355.5,292.5,355.5,285.5,355.5,278.5z"/>
	</g>
	<g>
		<path class="st111" d="M160.5,312.5c0,5,0,10,0,15c-0.8,0.8-1.3,1.8-1.5,3c-3.3-1.3-6.7-1.3-10,0c-0.5-6-0.7-12-0.5-18
			C152.5,312.5,156.5,312.5,160.5,312.5z"/>
	</g>
	<g>
		<path class="st112" d="M532.5,312.5c0,6.7,0,13.3,0,20c-22,0.7-44,1.3-66,2c-23.4-0.3-46.6-0.6-69.5-1c-1.3,0.7-2.7,1.3-4,2
			c-6.4-0.5-12.7-1.2-19-2c-1.7,1.4-2.9,3.1-3.5,5c0-8.3,0-16.7,0-25c0.3,0,0.7,0,1,0c0,1.3,0,2.7,0,4c53.2-0.2,106.5-0.9,160-2
			C531.3,314.2,531.6,313.2,532.5,312.5z"/>
	</g>
	<g>
		<path class="st113" d="M7.5,315.5c28.3,24.3,56.3,48.9,84,74c0.9,0.7,1.2,1.7,1,3c0,19,0,38,0,57c0.2,9.7,0,19.3-0.5,29
			c-1-0.9-1.9-1.9-2.5-3c-1.4-4.9-2.2-9.9-2.5-15c-0.3-13-0.7-26-1-39c-1.5-8.1-4.7-15.4-9.5-22c-4.3-5.5-8.8-10.8-13.5-16
			c-8.7-8.5-17.5-16.9-26.5-25c-0.9-0.8-1.2-1.8-1-3c-6.4-4.5-12.7-9.4-19-14.5c-0.9-0.7-1.6-0.5-2,0.5
			C11.8,333,9.5,324.4,7.5,315.5z"/>
	</g>
	<g>
		<path class="st114" d="M266.5,312.5c0,6.3,0,12.7,0,19c-1,2.8-1.3,5.8-1,9c-6.1,0.6-12.3,0.2-18.5-1c-2.7,0.7-5.3,1.3-8,2
			c-17.2-1-33.8-1-50,0c-0.5-8.7-0.7-17.3-0.5-26c21.3,0.2,42.7-0.2,64-1C257.4,314.4,262.1,313.8,266.5,312.5z"/>
	</g>
	<g>
		<path class="st115" d="M160.5,312.5c-4,0-8,0-12,0c-0.2,6,0,12,0.5,18c3.3-1.3,6.7-1.3,10,0c0.2-1.2,0.7-2.2,1.5-3
			c0,2.7,0,5.3,0,8c-3.8,1.8-7.8,2.4-12,2c0.2-1.3-0.1-2.3-1-3c0-7.7,0-15.3,0-23C152,311.2,156.4,311.5,160.5,312.5z"/>
	</g>
	<g>
		<path class="st116" d="M355.5,299.5c0.4,10.5-0.8,20.9-3.5,31c-1.7,3.7-4.5,5.8-8.5,6.5c-9,1-18,1.7-27,2c-6.3,3.3-12.9,4.3-20,3
			c-3.6-0.7-6.4-2.5-8.5-5.5c-2.6-5.6-5.5-10.9-8.5-16c0-2.7,0-5.3,0-8c0.6-0.1,1.1-0.4,1.5-1c1.3,1.5,2.3,3.2,3,5
			c1.1,4.7,2.2,9.4,3.5,14c3.8,6,9.3,8.7,16.5,8c10.1-1.4,20.3-2.3,30.5-2.5c4.8-0.5,9-2.3,12.5-5.5c1.4-8.6,2.3-17.3,2.5-26
			C352.7,304.3,354.7,302.6,355.5,299.5z"/>
	</g>
	<g>
		<path class="st114" d="M146.5,334.5c-1,1.4-1.3,3.1-1,5c-13.2,0.3-26,0.6-38.5,1c-1.4-5.5-1.9-11.1-1.5-17c0-2.3,0-4.7,0-7
			c5.7-0.4,11.4-1.1,17-2c2.3,0.7,4.7,1.3,7,2c5.4-0.3,10.7-0.6,16-1C146.6,319.1,146.9,325.4,146.5,334.5z"/>
	</g>
	<g>
		<path class="st117" d="M348.5,271.5c3.4,1.4,5.7,3.7,7,7c0,7,0,14,0,21c-0.8,3.1-2.8,4.8-6,5c-0.2,8.7-1.1,17.4-2.5,26
			c-3.5,3.2-7.7,5-12.5,5.5c-10.2,0.2-20.4,1.1-30.5,2.5c-7.2,0.7-12.7-2-16.5-8c-1.3-4.6-2.4-9.3-3.5-14c-0.7-1.8-1.7-3.5-3-5
			c-0.4,0.6-0.9,0.9-1.5,1c-1.1-11.8-1.1-23.5,0-35c-0.2,8,0,16,0.5,24c1.1,1.7,2.6,2.2,4.5,1.5c1.2-2.5,2.4-5,3.5-7.5
			c0.3,1.3,0.7,2.7,1,4c0.2-2.5,0.7-4.9,1.5-7c-0.2,11.3,0,22.7,0.5,34c1.5,4,4.3,6.5,8.5,7.5c11,0.7,22,0.7,33,0
			c4.5-1.2,7.4-4,8.5-8.5c0.5-13.7,0.7-27.3,0.5-41c1,3.5,1.3,7.1,1,11c-0.2,3,0,6,0.5,9c0.5-4.6,1.8-8.9,4-13c1.1-1,2.1-0.6,3,1
			c2.9-4.2,3.9-8.9,3-14C351.2,276.3,349.8,273.9,348.5,271.5z"/>
	</g>
	<g>
		<path class="st118" d="M302.5,283.5c0.6,9.3,1.1,18.7,1.5,28c4,10.6,10.9,12.8,20.5,6.5c2.1-2.5,3.6-5.3,4.5-8.5
			c0.5-8.7,0.7-17.3,0.5-26c1.3,0,2.7,0,4,0c2.9-0.3,5.6,0,8,1c0.2,13.7,0,27.3-0.5,41c-1.1,4.5-4,7.3-8.5,8.5c-11,0.7-22,0.7-33,0
			c-4.2-1-7-3.5-8.5-7.5c-0.5-11.3-0.7-22.7-0.5-34c0-3,0-6,0-9C294.5,283.5,298.5,283.5,302.5,283.5z"/>
	</g>
	<g>
		<path class="st119" d="M302.5,283.5c0.7,1.9,1.3,3.9,2,6c1,0.9,2.2,1.5,3.5,2c6.2-3.9,12.8-4.9,20-3c0.2-1.9,0.7-3.5,1.5-5
			c0.2,8.7,0,17.3-0.5,26c-0.9,3.2-2.4,6-4.5,8.5c-9.6,6.3-16.5,4.1-20.5-6.5C303.6,302.2,303.1,292.8,302.5,283.5z"/>
	</g>
	<g>
		<path class="st120" d="M17.5,312.5c17,15.3,34,30.7,51,46c3.6,3.3,7.3,6.6,11,10c0.5,1.4,1.5,2.1,3,2c2,2.7,4.3,5,7,7
			c0,0.7,0.3,1,1,1c0.1,0.5,0.4,0.9,1,1c1-9,1.3-18,1-27c0.8,10.2,1.3,20.5,1.5,31c0.7,2.7,2.2,4.9,4.5,6.5
			c63.1,0.2,126.1,0.7,189,1.5c0,0.3,0,0.7,0,1c-30,0-60,0-90,0c-30.7,0-61.3,0-92,0c-0.3,0-0.7,0-1,0c-4,0-8,0-12,0
			c0.2-1.3-0.1-2.3-1-3c0.3-2.4,0-4.8-1-7c-16.4-12.6-31.4-26.7-45-42.5c-5.6-1.9-9.6-5.6-12-11c-4.1-3.3-8.5-6.3-13-9
			C17.9,317.8,16.9,315.3,17.5,312.5z"/>
	</g>
	<g>
		<path class="st121" d="M532.5,332.5c0,6,0,12,0,18c-0.7,1.3-1.6,2.6-2.5,4c-1.3-0.7-2.7-1.3-4-2c-4.2,0.3-8.5,1-13,2
			c-2-1.3-4-1.3-6,0c-0.3-0.7-0.7-1.3-1-2c-1.5,0.4-3.2,0.4-5,0c-0.7,0.7-1.3,1.3-2,2c-1.7-0.7-3.3-1.3-5-2c-0.7,2.4-1.7,2.4-3,0
			c-0.3,0.8-0.8,1.5-1.5,2c-3.5-1.2-7-1.2-10.5,0c-1.9-2.3-3.5-2.3-5,0c-4.5-0.3-8.6-0.3-12.5,0c-1.3-2.5-2.5-2.5-3.5,0
			c-0.3-0.8-0.8-1.5-1.5-2c-0.3,0.7-0.7,1.3-1,2c-1.8-1.2-3.6-1.2-5.5,0c-0.9-0.4-1.6-1.1-2-2c-0.7,1.1-1.6,1.1-2.5,0
			c-0.7,0.7-1.3,1.3-2,2c-0.9-1.1-1.8-1.1-2.5,0c-0.3-0.7-0.7-1.3-1-2c-1.3,2.7-2.7,2.7-4,0c-0.4,0.9-1.1,1.6-2,2
			c-3.2-0.1-6.3-0.1-9.5,0c-1.1-0.3-2-1-2.5-2c-1.3,2.7-2.7,2.7-4,0c-2.6,1.3-5.4,1.9-8.5,2c-8.5-0.7-17.1-1.1-26-1
			c-1.2,2.1-2.7,2.1-4.5,0c-0.7,0.7-1.3,1.3-2,2c-2.4-0.6-4.6-1.6-6.5-3c0-4.7,0-9.3,0-14c0.6-1.9,1.8-3.6,3.5-5
			c6.3,0.8,12.6,1.5,19,2c1.3-0.7,2.7-1.3,4-2c22.9,0.4,46.1,0.7,69.5,1C488.5,333.8,510.5,333.2,532.5,332.5z"/>
	</g>
	<g>
		<path class="st122" d="M89.5,475.5c-3.1-1.9-5.7-4.2-8-7c0.3,0,0.7,0,1,0c1.3-14.9,1.1-29.9-0.5-45c-0.7-3.1-1.7-6.1-3-9
			c-7.7-9.2-15.5-18.2-23.5-27c-7.9-7-16.2-13.5-25-19.5c-4.2-3.9-8-8-11.5-12.5c-0.3,0.9-0.8,1.6-1.5,2c-1.5-5.1-2.5-10.5-3-16
			c0.4-1,1.1-1.2,2-0.5c6.3,5.1,12.6,10,19,14.5c-0.2,1.2,0.1,2.2,1,3c9,8.1,17.8,16.5,26.5,25c4.7,5.2,9.2,10.5,13.5,16
			c4.8,6.6,8,13.9,9.5,22c0.3,13,0.7,26,1,39C87.3,465.6,88.1,470.6,89.5,475.5z"/>
	</g>
	<g>
		<path class="st123" d="M532.5,350.5c0,9.7,0,19.3,0,29c-60.3,0-120.7,0-181,0c0-5.7,0-11.3,0-17c1.9,0.3,3.6,0,5-1
			c6,0.5,10.4-1.9,13-7c0.8-0.3,1.2-1,1-2c1.9,1.4,4.1,2.4,6.5,3c0.7-0.7,1.3-1.3,2-2c1.8,2.1,3.3,2.1,4.5,0c8.9-0.1,17.5,0.3,26,1
			c3.1-0.1,5.9-0.7,8.5-2c1.3,2.7,2.7,2.7,4,0c0.5,1,1.4,1.7,2.5,2c3.2-0.1,6.3-0.1,9.5,0c0.9-0.4,1.6-1.1,2-2c1.3,2.7,2.7,2.7,4,0
			c0.3,0.7,0.7,1.3,1,2c0.7-1.1,1.6-1.1,2.5,0c0.7-0.7,1.3-1.3,2-2c0.9,1.1,1.8,1.1,2.5,0c0.4,0.9,1.1,1.6,2,2
			c1.9-1.2,3.7-1.2,5.5,0c0.3-0.7,0.7-1.3,1-2c0.7,0.5,1.2,1.2,1.5,2c1-2.5,2.2-2.5,3.5,0c3.9-0.3,8-0.3,12.5,0c1.5-2.3,3.1-2.3,5,0
			c3.5-1.2,7-1.2,10.5,0c0.7-0.5,1.2-1.2,1.5-2c1.3,2.4,2.3,2.4,3,0c1.7,0.7,3.3,1.3,5,2c0.7-0.7,1.3-1.3,2-2c1.8,0.4,3.5,0.4,5,0
			c0.3,0.7,0.7,1.3,1,2c2-1.3,4-1.3,6,0c4.5-1,8.8-1.7,13-2c1.3,0.7,2.7,1.3,4,2C530.9,353.1,531.8,351.8,532.5,350.5z"/>
	</g>
	<g>
		<path class="st124" d="M173.5,336.5c0,8.7,0,17.3,0,26c4.7,0,9.3,0,14,0c0-17,0-34,0-51c0.9,1.1,1.3,2.4,1,4
			c-0.2,8.7,0,17.3,0.5,26c16.2-1,32.8-1,50,0c2.7-0.7,5.3-1.3,8-2c6.2,1.2,12.4,1.6,18.5,1c-0.3-3.2,0-6.2,1-9
			c-0.3,6.2,0,12.2,1,18c-0.2,2.4,0.4,4.4,2,6c1.5,2.3,3.5,4.2,6,5.5c4,0.5,8,0.7,12,0.5c0,6.3,0,12.7,0,19c-61,0-122,0-183,0
			c-0.3-19.2,0-38.2,1-57c-0.4,5.9,0.1,11.5,1.5,17c12.5-0.4,25.3-0.7,38.5-1c-0.3-1.9,0-3.6,1-5c-0.3,9.5,0,18.8,1,28
			c4.3,0,8.7,0,13,0c0.5-19.5,1.2-33.9,2-43c3,0,6,0,9,0c-0.2-2.4,0-4.7,0.5-7C172.2,320.7,172.7,328.7,173.5,336.5z"/>
	</g>
	<g>
		<path class="st125" d="M186.5,311.5c0.3,0,0.7,0,1,0c0,17,0,34,0,51c-4.7,0-9.3,0-14,0c0-8.7,0-17.3,0-26c0-2,0-4,0-6
			c0.3,0,0.7,0,1,0c0,3.3,0,6.7,0,10c-0.7,9.2-0.4,14.2,1,15c3-0.2,6,0,9,0.5c0.7,1.7,1.2,3.6,1.5,5.5c0.5-6.3,0.7-12.7,0.5-19
			c0-4.3,0-8.7,0-13c0-5.7,0-11.3,0-17C186.5,312.2,186.5,311.8,186.5,311.5z"/>
	</g>
	<g>
		<path class="st126" d="M160.5,348.5c0,4.7,0,9.3,0,14c-4.3,0-8.7,0-13,0c0-4.3,0-8.7,0-13c2,0.5,4.1,0.5,6.5,0c2,0.1,3.6,0.8,5,2
			C159.2,350.3,159.7,349.3,160.5,348.5z"/>
	</g>
	<g>
		<path class="st127" d="M186.5,342.5c0.2,6.3,0,12.7-0.5,19c-0.3-1.9-0.8-3.8-1.5-5.5c-3-0.5-6-0.7-9-0.5c-1.4-0.8-1.7-5.8-1-15
			c3.3-1.8,7-2.5,11-2C185.2,340.1,185.6,341.4,186.5,342.5z"/>
	</g>
	<g>
		<path class="st128" d="M147.5,334.5c0.9,0.7,1.2,1.7,1,3c4.2,0.4,8.2-0.2,12-2c0,4.3,0,8.7,0,13c-0.8,0.8-1.3,1.8-1.5,3
			c-1.4-1.2-3-1.9-5-2c-2.4,0.5-4.5,0.5-6.5,0C147.5,344.5,147.5,339.5,147.5,334.5z"/>
	</g>
	<g>
		<path class="st129" d="M186.5,329.5c0,4.3,0,8.7,0,13c-0.9-1.1-1.3-2.4-1-4c-4-0.5-7.7,0.2-11,2c0-3.3,0-6.7,0-10
			c0.9-1.1,1.3-2.4,1-4c3-0.2,6,0,9,0.5C185.1,328,185.7,328.8,186.5,329.5z"/>
	</g>
	<g>
		<path class="st130" d="M186.5,312.5c0,5.7,0,11.3,0,17c-0.8-0.7-1.4-1.5-2-2.5c-3-0.5-6-0.7-9-0.5c0.3,1.6-0.1,2.9-1,4
			c0-6,0-12,0-18C178.5,312.5,182.5,312.5,186.5,312.5z"/>
	</g>
	<g>
		<path class="st131" d="M186.5,311.5c0,0.3,0,0.7,0,1c-4,0-8,0-12,0c0,6,0,12,0,18c-0.3,0-0.7,0-1,0c0-6.3,0-12.7,0-19
			C177.8,311.5,182.2,311.5,186.5,311.5z"/>
	</g>
	<g>
		<path class="st132" d="M287.5,361.5c2.3,0,4.7,0,7,0c-0.4,28.4,0.6,56.7,3,85c2,0.2,4,0,6-0.5c6.8-6.2,13-13,18.5-20.5
			c3.3-6.2,6.3-12.5,9-19c2.6-14.5,4.8-29,6.5-43.5c-2-0.5-4-0.7-6-0.5c0-0.3,0-0.7,0-1c2.7,0,5.3,0,8,0c1.1,1.4,1.8,3,2,5
			c-1.1,11.7-2.3,23.7-3.5,36c-3.6,17.7-11.7,32.8-24.5,45.5c-4,2.6-8.3,4.6-13,6c-4.7,1.4-8.5,0.3-11.5-3.5c-0.3,0.9-0.8,1.6-1.5,2
			c0-8.7,0-17.3,0-26c0-5.7,0-11.3,0-17c0-2.7,0-5.3,0-8c0-3,0-6,0-9c0-0.3,0-0.7,0-1c0-3.7,0-7.3,0-11
			C287.5,374.2,287.5,367.8,287.5,361.5z"/>
	</g>
	<g>
		<path class="st133" d="M298.5,361.5c11,0,22,0,33,0c0,0.3,0,0.7,0,1c0.2,19.7-3.3,38.7-10.5,57c-2,1.7-4,3.3-6,5
			c-0.3-0.3-0.7-0.7-1-1c-1.6,1.5-2.9,3.2-4,5c-1-0.8-2.2-1.2-3.5-1c-1-3.9-2.9-7.6-5.5-11c-1.2-3.6-2.2-7.3-3-11
			C298,391.1,298.2,376.5,298.5,361.5z"/>
	</g>
	<g>
		<path class="st134" d="M339.5,361.5c3.7,0,7.3,0,11,0c0,6.3,0,12.7,0,19c0,4.3,0,8.7,0,13c-0.3,16.7-3.5,33.1-9.5,49
			c-4.7,7.5-11,13.2-19,17c-0.3-0.3-0.7-0.7-1-1c-11.5,3.1-22.7,3.8-33.5,2c0-2.7,0-5.3,0-8c0.7-0.4,1.2-1.1,1.5-2
			c3,3.8,6.8,4.9,11.5,3.5c4.7-1.4,9-3.4,13-6c12.8-12.7,20.9-27.8,24.5-45.5c1.2-12.3,2.4-24.3,3.5-36
			C341.3,364.5,340.6,362.9,339.5,361.5z"/>
	</g>
	<g>
		<path class="st135" d="M82.5,468.5c-2.6-3.1-3.9-6.8-4-11c-0.2-5.9,0.1-11.8,1-17.5c-0.5-6.6-1.6-13.1-3.5-19.5
			c-6.1-8.1-12.9-15.6-20.5-22.5c-13.8-9.4-26.4-19.2-38-29.5c0-3.7,0-7.3,0-11c0.7-0.4,1.2-1.1,1.5-2c3.5,4.5,7.3,8.6,11.5,12.5
			c8.8,6,17.1,12.5,25,19.5c8,8.8,15.8,17.8,23.5,27c1.3,2.9,2.3,5.9,3,9C83.6,438.6,83.8,453.6,82.5,468.5z"/>
	</g>
	<g>
		<path class="st136" d="M17.5,368.5c11.6,10.3,24.2,20.1,38,29.5c7.6,6.9,14.4,14.4,20.5,22.5c1.9,6.4,3,12.9,3.5,19.5
			c-0.9,5.7-1.2,11.6-1,17.5c0.1,4.2,1.4,7.9,4,11c-0.3,0-0.7,0-1,0c-3-2.7-6-5.4-9-8c2.2-15.9-0.4-30.9-8-45
			c-3.9-4.7-8.2-8.9-13-12.5c-11.5-6.2-22-13.7-31.5-22.5c-0.7,0.8-1.5,1.1-2.5,1C17.5,377.2,17.5,372.8,17.5,368.5z"/>
	</g>
	<g>
		<path class="st137" d="M532.5,296.5c0.3,0,0.7,0,1,0c0,28,0,56,0,84c-60.7,0-121.3,0-182,0c-0.3,0-0.7,0-1,0c0-6.3,0-12.7,0-19
			c2,0,4,0,6,0c-1.4,1-3.1,1.3-5,1c0,5.7,0,11.3,0,17c60.3,0,120.7,0,181,0c0-9.7,0-19.3,0-29c0-6,0-12,0-18c0-6.7,0-13.3,0-20
			c0-2.7,0-5.3,0-8S532.5,299.2,532.5,296.5z"/>
	</g>
	<g>
		<path class="st138" d="M350.5,380.5c0.3,0,0.7,0,1,0c-0.2,3,0,6,0.5,9c64.3-1,128.4-1.3,192.5-1c-0.7,1-1.3,2-2,3
			c-2.8,1.4-5.8,2.1-9,2c-0.3,0-0.7,0-1,0c-60.3,0-120.7,0-181,0c-0.3,0-0.7,0-1,0C350.5,389.2,350.5,384.8,350.5,380.5z"/>
	</g>
	<g>
		<path class="st139" d="M542.5,391.5c2.7,2.3,4.2,5.3,4.5,9c0.7,25.7,0.7,51.3,0,77c-0.1,3.5-1.3,6.5-3.5,9
			c-63.8-1-127.8-1.3-192-1c0-2.7,0-5.3,0-8c60.7,0,121.3,0,182,0c0-15.7,0-31.3,0-47c0-12.3,0-24.7,0-37
			C536.7,393.6,539.7,392.9,542.5,391.5z"/>
	</g>
	<g>
		<path class="st140" d="M72.5,460.5c-19.7-18-39.4-36-59-54c1.7-8.3,3-16.6,4-25c1,0.1,1.8-0.2,2.5-1c9.5,8.8,20,16.3,31.5,22.5
			c4.8,3.6,9.1,7.8,13,12.5C72.1,429.6,74.7,444.6,72.5,460.5z"/>
	</g>
	<g>
		<path class="st141" d="M92.5,392.5c4,0,8,0,12,0c0,28.3,0,56.7,0,85c60.7,0,121.3,0,182,0c0,2.7,0,5.3,0,8
			c-61.3,0.4-122.8,0.7-184.5,1c-3-0.5-5-2.2-6-5c-1.2-9.3-1.9-18.6-2-28c-0.2-1.6-0.7-2.9-1.5-4C92.5,430.5,92.5,411.5,92.5,392.5z
			"/>
	</g>
	<g>
		<path class="st142" d="M105.5,392.5c30.7,0,61.3,0,92,0c29.8,0.3,59.5,1.3,89,3c-61,0.2-121.3,0.5-181,1
			C105.5,395.2,105.5,393.8,105.5,392.5z"/>
	</g>
	<g>
		<path class="st143" d="M351.5,393.5c60.3,0,120.7,0,181,0c0,2.3,0,4.7,0,7c-13.9-1.3-28.1-2-42.5-2c-21,0.5-41,0.5-60,0
			c-26.3,0.3-52.5,1.3-78.5,3C351.5,398.8,351.5,396.2,351.5,393.5z"/>
	</g>
	<g>
		<path class="st144" d="M286.5,395.5c0,1,0,2,0,3c-60,0.6-120.3,1.2-181,2c0-1.3,0-2.7,0-4C165.2,396,225.5,395.7,286.5,395.5z"/>
	</g>
	<g>
		<path class="st145" d="M532.5,400.5c0,0.7,0,1.3,0,2c-33.9-0.7-66.8-1-98.5-1c-27.7,0.3-55.2,1.3-82.5,3c0-1,0-2,0-3
			c26-1.7,52.2-2.7,78.5-3c19,0.5,39,0.5,60,0C504.4,398.5,518.6,399.2,532.5,400.5z"/>
	</g>
	<g>
		<path class="st146" d="M197.5,392.5c30,0,60,0,90,0c0,3,0,6,0,9c-0.9,0.7-1.2,1.7-1,3c-0.7-0.9-1.3-1.9-2-3
			c-59.2,0.9-118.9,1.5-179,2c0-1,0-2,0-3c60.7-0.8,121-1.4,181-2c0-1,0-2,0-3C257,393.8,227.3,392.8,197.5,392.5z"/>
	</g>
	<g>
		<path class="st147" d="M532.5,402.5c0,1,0,2,0,3c-16.5-0.8-33-1.2-49.5-1c-43.8,0.8-87.6,1.5-131.5,2c0-0.7,0-1.3,0-2
			c27.3-1.7,54.8-2.7,82.5-3C465.7,401.5,498.6,401.8,532.5,402.5z"/>
	</g>
	<g>
		<path class="st148" d="M286.5,404.5c0.1,1.1,0,2.1-0.5,3c-1-1.4-2.3-2.4-4-3c-23.5,0.7-47,1.3-70.5,2c-18.9-0.7-37.9-1.1-57-1
			c-16.4,0.6-32.7,1.2-49,2c0-1.3,0-2.7,0-4c60.1-0.5,119.8-1.1,179-2C285.2,402.6,285.8,403.6,286.5,404.5z"/>
	</g>
	<g>
		<path class="st149" d="M294.5,361.5c1.3,0,2.7,0,4,0c-0.3,15-0.5,29.6-0.5,44c0.8,3.7,1.8,7.4,3,11c2.6,3.4,4.5,7.1,5.5,11
			c1.3-0.2,2.5,0.2,3.5,1c1.1-1.8,2.4-3.5,4-5c0.3,0.3,0.7,0.7,1,1c2-1.7,4-3.3,6-5c7.2-18.3,10.7-37.3,10.5-57c2-0.2,4,0,6,0.5
			c-1.7,14.5-3.9,29-6.5,43.5c-2.7,6.5-5.7,12.8-9,19c-5.5,7.5-11.7,14.3-18.5,20.5c-2,0.5-4,0.7-6,0.5
			C295.1,418.2,294.1,389.9,294.5,361.5z"/>
	</g>
	<g>
		<path class="st150" d="M10.5,406.5c3,8.5,8.7,14.7,17,18.5c19.7,19.7,40,38.7,61,57c0.9,0.5,1.9,0.6,3,0.5c0,2,0,4,0,6
			c-30.6-26.6-61-53.6-91-81C3.8,406.5,7.1,406.2,10.5,406.5z"/>
	</g>
	<g>
		<path class="st151" d="M287.5,401.5c0,2.7,0,5.3,0,8c-0.8,0.3-1.2,1-1,2c-1.2-0.5-2.4-1.2-3.5-2c-29.3,0.6-59.3,1.2-90,2
			c-1.8-0.7-3.6-1.1-5.5-1c0,1,0,2,0,3c0,5.7,0,11.3,0,17c0,1.3,0,2.7,0,4c-0.3,0-0.7,0-1,0c0-1.3,0-2.7,0-4c0-7.7,0-15.3,0-23
			c-4,0-8,0-12,0c-1,2.1-1.3,4.4-1,7c-0.7-0.4-1.2-1.1-1.5-2c-3.4,1-6.9,1.3-10.5,1c0.3,5.9,0,11.5-1,17c0-3.3,0-6.7,0-10
			c0-4.3,0-8.7,0-13c-4.3,0-8.7,0-13,0c0,1.7,0,3.3,0,5c-14-1.3-28-1.3-42,0c0-1.7,0-3.3,0-5c16.3-0.8,32.6-1.4,49-2
			c19.1-0.1,38.1,0.3,57,1c23.5-0.7,47-1.3,70.5-2c1.7,0.6,3,1.6,4,3c0.5-0.9,0.6-1.9,0.5-3C286.3,403.2,286.6,402.2,287.5,401.5z"
			/>
	</g>
	<g>
		<path class="st152" d="M532.5,405.5c0,2,0,4,0,6c-59.4-0.6-119.8-0.6-181,0c0-1.7,0-3.3,0-5c43.9-0.5,87.7-1.2,131.5-2
			C499.5,404.3,516,404.7,532.5,405.5z"/>
	</g>
	<g>
		<path class="st153" d="M286.5,411.5c0.2,1.4,0,2.7-0.5,4c-31.3-0.7-61.6-0.7-91,0c-2.8,0.2-5.3-0.5-7.5-2c0-1,0-2,0-3
			c1.9-0.1,3.7,0.3,5.5,1c30.7-0.8,60.7-1.4,90-2C284.1,410.3,285.3,411,286.5,411.5z"/>
	</g>
	<g>
		<path class="st154" d="M350.5,393.5c0.3,0,0.7,0,1,0c0,2.7,0,5.3,0,8c0,1,0,2,0,3c0,0.7,0,1.3,0,2c0,1.7,0,3.3,0,5
			c61.2-0.6,121.6-0.6,181,0c0.2,6,0,12-0.5,18c-1.7-1.2-3.7-1.9-6-2c-8.3-0.1-16.6,0.2-25,1c-0.7-0.7-1.3-1.3-2-2
			c-11.7,0.7-23.3,1.3-35,2c-35.3-1.2-72.1-1.2-110.5,0c-0.7,0.7-1.3,1.4-2,2c0.3-5.5,0-10.9-1-16
			C350.5,407.5,350.5,400.5,350.5,393.5z"/>
	</g>
	<g>
		<path class="st155" d="M287.5,409.5c0,5.7,0,11.3,0,17c-1,1.4-1.3,3.1-1,5c-5-2.8-10.2-3.1-15.5-1c-28.3-0.7-56.2-0.7-83.5,0
			c0-5.7,0-11.3,0-17c2.2,1.5,4.7,2.2,7.5,2c29.4-0.7,59.7-0.7,91,0c0.5-1.3,0.7-2.6,0.5-4C286.3,410.5,286.7,409.8,287.5,409.5z"/>
	</g>
	<g>
		<path class="st156" d="M147.5,412.5c0,2.3,0,4.7,0,7c0,3.7,0,7.3,0,11c0,1.7,0,3.3,0,5c-0.8-6.8-1.3-13.8-1.5-21
			c-0.2,3.4-0.7,6.7-1.5,10c-2.5-1.9-4.7-1.9-6.5,0c-1.3-0.3-2.3-0.9-3-2c-0.4,0.9-1.1,1.6-2,2c-1-0.4-1.5-1.1-1.5-2
			c-0.7,0.5-1.2,1.2-1.5,2c-0.7-1.3-1.3-1.3-2,0c-0.6-2.5-1.5-2.5-2.5,0c-1.7-2.7-3.3-2.7-5,0c-1.2-0.3-1.2-0.8,0-1.5
			c-1.3,0.1-2.5,0-3.5-0.5c-0.7,2.4-1.7,2.4-3,0c-0.6,2.5-1.5,2.5-2.5,0c-0.7,0.5-1.2,1.2-1.5,2c-1.8-1.2-3.3-0.9-4.5,1
			c0-4.3,0-8.7,0-13C119.5,411.2,133.5,411.2,147.5,412.5z"/>
	</g>
	<g>
		<path class="st157" d="M350.5,393.5c0,7,0,14,0,21c0,19,0,38,0,57c-6,1-11.8,1.3-17.5,1c-12.4-0.8-24.9-1.3-37.5-1.5
			c-0.5-0.5-1-1-1.5-1.5c-1.7,0.9-3.5,1.2-5.5,1c0.2-1.3-0.1-2.3-1-3c0-2.3,0-4.7,0-7c10.8,1.8,22,1.1,33.5-2c0.3,0.3,0.7,0.7,1,1
			c8-3.8,14.3-9.5,19-17C347,426.6,350.2,410.2,350.5,393.5z"/>
	</g>
	<g>
		<path class="st158" d="M160.5,420.5c-3.7-0.2-7.6,0.2-11.5,1c-0.3-0.9-0.8-1.6-1.5-2c0-2.3,0-4.7,0-7c0-1.7,0-3.3,0-5
			c4.3,0,8.7,0,13,0C160.5,411.8,160.5,416.2,160.5,420.5z"/>
	</g>
	<g>
		<path class="st159" d="M174.5,407.5c4,0,8,0,12,0c0,7.7,0,15.3,0,23c-3.7-1.8-7.7-2.5-12-2C174.5,421.5,174.5,414.5,174.5,407.5z"
			/>
	</g>
	<g>
		<path class="st160" d="M532.5,393.5c0.3,0,0.7,0,1,0c0,12.3,0,24.7,0,37c-1,2.8-1.3,5.8-1,9c-0.8-0.8-1.3-1.8-1.5-3
			c-0.7,1.1-1.6,1.1-2.5,0c-0.7,0.5-1.2,1.2-1.5,2c-1.1-1.2-2.3-1.2-3.5,0c-0.7-0.5-1.2-1.2-1.5-2c-1.4,2.2-3.1,2.2-5,0
			c-1,0.7-2,1.3-3,2c-2.5-0.9-4.8-0.9-7,0c-1.3-2.5-2.5-2.5-3.5,0c-15.9,0.2-31.9-0.1-48-1c-4.8,1.9-9.5,1.9-14,0
			c-1.9,0.6-3.7,1.3-5.5,2c-1.3-2.4-2.3-2.4-3,0c-0.3-0.8-0.8-1.5-1.5-2c-3.8,1.3-7.7,1.3-11.5,0c-1.3,0.3-2.3,0.9-3,2
			c-22-0.5-43.3-0.8-64-1c-0.2,1.2-0.7,2.2-1.5,3c0-3.7,0-7.3,0-11c0.7-0.6,1.3-1.3,2-2c38.4-1.2,75.2-1.2,110.5,0
			c11.7-0.7,23.3-1.3,35-2c0.7,0.7,1.3,1.3,2,2c8.4-0.8,16.7-1.1,25-1c2.3,0.1,4.3,0.8,6,2c0.5-6,0.7-12,0.5-18c0-2,0-4,0-6
			c0-1,0-2,0-3c0-0.7,0-1.3,0-2C532.5,398.2,532.5,395.8,532.5,393.5z"/>
	</g>
	<g>
		<path class="st161" d="M173.5,414.5c0,5.7,0,11.3,0,17c0,2,0,4,0,6c-0.8-0.8-1.3-1.8-1.5-3c-0.5,1-1.4,1.7-2.5,2
			c-2.5-0.5-5.2-0.5-8,0c0,7.3,0,14.7,0,22c-5,0-10,0-15,0c0.4-8.4,0.1-14.1-1-17c-13.1-0.1-26.4-0.1-40,0c0-5.3,0-10.7,0-16
			c1.2-1.9,2.7-2.2,4.5-1c0.3-0.8,0.8-1.5,1.5-2c1,2.5,1.9,2.5,2.5,0c1.3,2.4,2.3,2.4,3,0c1,0.5,2.2,0.6,3.5,0.5
			c-1.2,0.7-1.2,1.2,0,1.5c1.7-2.7,3.3-2.7,5,0c1-2.5,1.9-2.5,2.5,0c0.7-1.3,1.3-1.3,2,0c0.3-0.8,0.8-1.5,1.5-2c0,0.9,0.5,1.6,1.5,2
			c0.9-0.4,1.6-1.1,2-2c0.7,1.1,1.7,1.7,3,2c1.8-1.9,4-1.9,6.5,0c0.8-3.3,1.3-6.6,1.5-10c0.2,7.2,0.7,14.2,1.5,21c0,2,0,4,0,6
			c0,5.3,0,10.7,0,16c4.3,0,8.7,0,13,0c0-4.7,0-9.3,0-14c0-3,0-6,0-9c0-1.3,0-2.7,0-4c1-5.5,1.3-11.1,1-17c3.6,0.3,7.1,0,10.5-1
			C172.3,413.4,172.8,414.1,173.5,414.5z"/>
	</g>
	<g>
		<path class="st162" d="M147.5,419.5c0.7,0.4,1.2,1.1,1.5,2c3.9-0.8,7.8-1.2,11.5-1c0,3.3,0,6.7,0,10c0,1.3,0,2.7,0,4
			c-3.9-0.9-7.9-1.2-12-1c0.2-1.3-0.1-2.3-1-3C147.5,426.8,147.5,423.2,147.5,419.5z"/>
	</g>
	<g>
		<path class="st163" d="M174.5,407.5c0,7,0,14,0,21c4.3-0.5,8.3,0.2,12,2c0,1.3,0,2.7,0,4c0.2,2.4,0,4.7-0.5,7
			c-3.7-1.3-7.3-1.3-11,0c-0.2-3.5-0.7-6.9-1.5-10c0-5.7,0-11.3,0-17C173.2,411.9,173.5,409.6,174.5,407.5z"/>
	</g>
	<g>
		<path class="st164" d="M104.5,392.5c0.3,0,0.7,0,1,0c0,1.3,0,2.7,0,4s0,2.7,0,4c0,1,0,2,0,3c0,1.3,0,2.7,0,4c0,1.7,0,3.3,0,5
			c0,4.3,0,8.7,0,13c0,5.3,0,10.7,0,16c13.6-0.1,26.9-0.1,40,0c1.1,2.9,1.4,8.6,1,17c5,0,10,0,15,0c0-7.3,0-14.7,0-22
			c2.8-0.5,5.5-0.5,8,0c1.1-0.3,2-1,2.5-2c0.2,1.2,0.7,2.2,1.5,3c0,7,0,14,0,21c4.7,0,9.3,0,14,0c0-7.7,0-15.3,0-23
			c0.8,1.1,1.3,2.4,1.5,4c1.3,0.7,2.7,1.3,4,2c2.5-0.1,5.2-0.8,8-2c0.7,1.3,1.3,1.3,2,0c0.3,0.7,0.7,1.3,1,2c4.1,0.6,8.1,0,12-2
			c1,0.7,2,1.3,3,2c4.3-0.2,8.8-0.9,13.5-2c12.2,0.2,24,0.2,35.5,0c1.7,0.7,3.3,1.3,5,2c0.3-0.8,0.8-1.5,1.5-2
			c3.2,0.2,6.4,0.5,9.5,1c0.3-0.7,0.7-1.3,1-2c0.3,1.3,0.7,2.7,1,4c0.5-3.7,0.7-7.3,0.5-11c-0.3-1.9,0-3.6,1-5c0,8.7,0,17.3,0,26
			c0,2.7,0,5.3,0,8c0,2.3,0,4.7,0,7c0.3,3.5,0,6.9-1,10c-60.7,0-121.3,0-182,0C104.5,449.2,104.5,420.8,104.5,392.5z"/>
	</g>
	<g>
		<path class="st165" d="M147.5,430.5c0.9,0.7,1.2,1.7,1,3c4.1-0.2,8.1,0.1,12,1c0,3,0,6,0,9c-4.4-0.6-8.7-1.3-13-2c0-2,0-4,0-6
			C147.5,433.8,147.5,432.2,147.5,430.5z"/>
	</g>
	<g>
		<path class="st160" d="M286.5,431.5c0.2,3.7,0,7.3-0.5,11c-0.3-1.3-0.7-2.7-1-4c-0.3,0.7-0.7,1.3-1,2c-3.1-0.5-6.3-0.8-9.5-1
			c-0.7,0.5-1.2,1.2-1.5,2c-1.7-0.7-3.3-1.3-5-2c-11.5,0.2-23.3,0.2-35.5,0c-4.7,1.1-9.2,1.8-13.5,2c-1-0.7-2-1.3-3-2
			c-3.9,2-7.9,2.6-12,2c-0.3-0.7-0.7-1.3-1-2c-0.7,1.3-1.3,1.3-2,0c-2.8,1.2-5.5,1.9-8,2c-1.3-0.7-2.7-1.3-4-2
			c-0.2-1.6-0.7-2.9-1.5-4c0-0.3,0-0.7,0-1c0-1.3,0-2.7,0-4c27.3-0.7,55.2-0.7,83.5,0C276.3,428.4,281.5,428.7,286.5,431.5z"/>
	</g>
	<g>
		<path class="st166" d="M350.5,414.5c1,5.1,1.3,10.5,1,16c0,3.7,0,7.3,0,11c-0.2,3.4,0,6.7,0.5,10c0.6-1.6,1.6-2.9,3-4
			c2.7,2.4,5.4,2.4,8,0c0.3,0.7,0.7,1.3,1,2c1.3-0.7,2.7-1.3,4-2c6.5,1.1,13,1.1,19.5,0c1.9,0.6,3.7,1.3,5.5,2
			c0.3-0.8,0.8-1.5,1.5-2c3,0.9,6.2,1.2,9.5,1c1.3-0.3,2.3-0.9,3-2c2.1,1.3,4.5,1.9,7,2c4.9-0.9,9.7-0.6,14.5,1c2.5-0.6,5-1.3,7.5-2
			c1.8,0.7,3.8,1.1,6,1c0.7-2.7,1.3-2.7,2,0c3.5-0.9,6.9-0.9,10,0c0.7-0.7,1.3-1.3,2-2c1.3,1.3,2.7,1.3,4,0c0.3,0.8,0.8,1.5,1.5,2
			c5.7-0.8,11.5-0.8,17.5,0c0.9-2,2.2-2,4,0c0.3-0.7,0.7-1.3,1-2c1.7,0.7,3.3,1.3,5,2c0.3-0.8,0.8-1.5,1.5-2c2.6-0.5,5.1,0.1,7.5,2
			c0.3-0.7,0.7-1.3,1-2c2.6,0.4,5.4,1.1,8.5,2c0.7-0.5,1.2-1.2,1.5-2c7.3,1,14.8,1,22.5,0c-0.2,1.4,0,2.7,0.5,4
			c0.5-3.7,0.7-7.3,0.5-11c-0.3-3.2,0-6.2,1-9c0,15.7,0,31.3,0,47c-60.7,0-121.3,0-182,0c-1-1.8-1.3-3.8-1-6
			C350.5,452.5,350.5,433.5,350.5,414.5z"/>
	</g>
	<path class="st167" d="M532.5,439.5c-0.8-0.8-1.3-1.8-1.5-3c-0.7,1.1-1.6,1.1-2.5,0c-0.7,0.5-1.2,1.2-1.5,2c-1.1-1.2-2.3-1.2-3.5,0
		c-0.7-0.5-1.2-1.2-1.5-2c-1.4,2.2-3.1,2.2-5,0c-1,0.7-2,1.3-3,2c-2.5-0.9-4.8-0.9-7,0c-1.3-2.5-2.5-2.5-3.5,0
		c-15.9,0.2-31.9-0.1-48-1c-4.8,1.9-9.5,1.9-14,0c-1.9,0.6-3.7,1.3-5.5,2c-1.3-2.4-2.3-2.4-3,0c-0.3-0.8-0.8-1.5-1.5-2
		c-3.8,1.3-7.7,1.3-11.5,0c-1.3,0.3-2.3,0.9-3,2c-22-0.5-43.3-0.8-64-1c-0.2,1.2-0.7,2.2-1.5,3c-0.2,3.3,0,6.7,0.5,10
		c0.6-1.6,1.6-2.9,3-4c2.7,2.4,5.4,2.4,8,0c0.3,0.7,0.7,1.3,1,2c1.3-0.7,2.7-1.3,4-2c6.5,1.1,13,1.1,19.5,0c1.9,0.6,3.7,1.3,5.5,2
		c0.3-0.8,0.8-1.5,1.5-2c3,0.9,6.2,1.2,9.5,1c1.2-0.3,2.2-0.9,2.9-1.9c0.1,0.1,0.2,0.1,0.3,0.1c0,0,0.1,0,0.1,0
		c1.7,0.9,3.5,1.5,5.5,1.7c0,0,0.1,0,0.1,0.1c0.2,0.1,0.4,0.1,0.7,0c0.1,0,0.2,0,0.3,0c4.9-0.9,9.7-0.6,14.5,1c2.5-0.6,5-1.3,7.5-2
		c1.8,0.7,3.8,1.1,6,1c0.7-2.7,1.3-2.7,2,0c3.5-0.9,6.9-0.9,10,0l2-2c1.3,1.3,2.7,1.3,4,0c0.3,0.8,0.8,1.5,1.5,2
		c5.7-0.8,11.5-0.8,17.5,0c0.9-2,2.2-2,4,0c0.3-0.7,0.7-1.3,1-2c1.7,0.7,3.3,1.3,5,2c0.3-0.8,0.8-1.5,1.5-2c2.6-0.5,5.1,0.1,7.5,2
		c0.3-0.7,0.7-1.3,1-2c2.6,0.4,5.4,1.1,8.5,2c0.7-0.5,1.2-1.2,1.5-2c7.3,1,14.8,1,22.5,0c-0.2,1.4,0,2.7,0.5,4
		C532.5,446.8,532.7,443.2,532.5,439.5z"/>
	<g>
		<path class="st168" d="M147.5,441.5c4.3,0.7,8.6,1.4,13,2c0,4.7,0,9.3,0,14c-4.3,0-8.7,0-13,0
			C147.5,452.2,147.5,446.8,147.5,441.5z"/>
	</g>
	<g>
		<path class="st169" d="M10.5,406.5c1,0,2,0,3,0c19.6,18,39.3,36,59,54c3,2.6,6,5.3,9,8c2.3,2.8,4.9,5.1,8,7c0.6,1.1,1.5,2.1,2.5,3
			c0.5-9.7,0.7-19.3,0.5-29c0.8,1.1,1.3,2.4,1.5,4c0.1,9.4,0.8,18.7,2,28c1,2.8,3,4.5,6,5c61.7-0.3,123.2-0.6,184.5-1
			c0,1.7,0,3.3,0,5c-65.3,0.7-130.3,0-195-2c0-2,0-4,0-6c-1.1,0.1-2.1,0-3-0.5c-21-18.3-41.3-37.3-61-57
			C19.2,421.2,13.5,415,10.5,406.5z"/>
	</g>
	<g>
		<path class="st170" d="M173.5,431.5c0.8,3.1,1.3,6.5,1.5,10c3.7-1.3,7.3-1.3,11,0c0.5-2.3,0.7-4.6,0.5-7c0.3,0,0.7,0,1,0
			c0,0.3,0,0.7,0,1c0,7.7,0,15.3,0,23c-4.7,0-9.3,0-14,0c0-7,0-14,0-21C173.5,435.5,173.5,433.5,173.5,431.5z"/>
	</g>
	<g>
		<path class="st171" d="M287.5,467.5c0.9,0.7,1.2,1.7,1,3c2,0.2,3.8-0.1,5.5-1c0.5,0.5,1,1,1.5,1.5c12.6,0.2,25.1,0.7,37.5,1.5
			c5.7,0.3,11.5,0,17.5-1c-0.3,2.2,0,4.2,1,6c0,2.7,0,5.3,0,8c0,1.3,0,2.7,0,4c0,0.7,0,1.3,0,2c-3.7,0.7-7.5,1-11.5,1
			c-18-0.5-35.8-1.2-53.5-2c0-1.7,0-3.3,0-5c0-2.7,0-5.3,0-8C287.5,474.4,287.8,471,287.5,467.5z"/>
	</g>
	<g>
		<path class="st172" d="M351.5,485.5c64.2-0.3,128.2,0,192,1c-0.7,1.3-1.7,2.3-3,3c-63,0-126,0-189,0
			C351.5,488.2,351.5,486.8,351.5,485.5z"/>
	</g>
	<g>
		<path class="st173" d="M351.5,489.5c63,0,126,0,189,0c-0.4,0.7-1.1,1.2-2,1.5c-62.3,0.5-124.7,0.7-187,0.5
			C351.5,490.8,351.5,490.2,351.5,489.5z"/>
	</g>
</g>
<g id="图层_2">
</g>
</svg>
